<svg width="20" height="20" viewBox="0 0 20 20" fill="none" xmlns="http://www.w3.org/2000/svg">
<path d="M0.660645 9.96777C0.660645 12.5747 1.71826 14.9404 3.41602 16.6567C3.53662 16.7681 3.6665 16.7681 3.76855 16.6382L4.18604 16.1743C4.29736 16.0444 4.28809 15.9331 4.17676 15.8125C2.71094 14.3003 1.79248 12.2314 1.79248 9.96777C1.79248 5.40332 5.57764 1.60889 10.1606 1.60889C14.7437 1.60889 18.5288 5.40332 18.5288 9.96777C18.5288 12.2314 17.6104 14.3003 16.1445 15.8125C16.0332 15.9331 16.0239 16.0444 16.1353 16.1743L16.5527 16.6382C16.6548 16.7681 16.7847 16.7681 16.9053 16.6475C18.603 14.9404 19.6606 12.5747 19.6606 9.96777C19.6606 4.76318 15.4023 0.467773 10.1606 0.467773C4.91895 0.467773 0.660645 4.76318 0.660645 9.96777ZM3.36035 9.96777C3.36035 11.7676 4.05615 13.3911 5.20654 14.6157C5.32715 14.7456 5.45703 14.7363 5.56836 14.6157L5.98584 14.1519C6.10645 14.0312 6.08789 13.9199 5.97656 13.79C5.05811 12.7788 4.50146 11.4429 4.50146 9.96777C4.50146 6.87842 7.05273 4.30859 10.1606 4.30859C13.2686 4.30859 15.8198 6.87842 15.8198 9.96777C15.8198 11.4429 15.2632 12.7788 14.3447 13.7808C14.2334 13.9106 14.2148 14.0312 14.3354 14.1426L14.7622 14.6157C14.8643 14.7363 15.0034 14.7456 15.1147 14.6157C16.2559 13.3911 16.9609 11.7676 16.9609 9.96777C16.9609 6.23828 13.9087 3.16748 10.1606 3.16748C6.4126 3.16748 3.36035 6.23828 3.36035 9.96777ZM6.06006 9.96777C6.06006 10.9512 6.40332 11.8511 6.99707 12.5747C7.09912 12.6953 7.229 12.6953 7.34961 12.5654L7.78564 12.1201C7.89697 11.9995 7.8877 11.8789 7.8042 11.749C7.42383 11.2573 7.20117 10.6357 7.20117 9.96777C7.20117 8.35352 8.54639 7.0083 10.1606 7.0083C11.7749 7.0083 13.1201 8.35352 13.1201 9.96777C13.1201 10.6357 12.8975 11.2573 12.5171 11.749C12.4243 11.8789 12.415 11.9995 12.5356 12.1201L12.9717 12.5747C13.083 12.6953 13.2222 12.7046 13.3242 12.5654C13.918 11.8511 14.2612 10.9512 14.2612 9.96777C14.2612 7.72266 12.415 5.86719 10.1606 5.86719C7.90625 5.86719 6.06006 7.72266 6.06006 9.96777ZM4.1582 18.3916C3.87061 18.6978 4.04688 19.1616 4.48291 19.1616H15.8198C16.2559 19.1616 16.4321 18.6978 16.1538 18.3916L10.5503 12.0552C10.3276 11.8232 9.9751 11.8232 9.75244 12.0552L4.1582 18.3916Z" fill="white" style="mix-blend-mode:overlay"/>
<path d="M0.660645 9.96777C0.660645 12.5747 1.71826 14.9404 3.41602 16.6567C3.53662 16.7681 3.6665 16.7681 3.76855 16.6382L4.18604 16.1743C4.29736 16.0444 4.28809 15.9331 4.17676 15.8125C2.71094 14.3003 1.79248 12.2314 1.79248 9.96777C1.79248 5.40332 5.57764 1.60889 10.1606 1.60889C14.7437 1.60889 18.5288 5.40332 18.5288 9.96777C18.5288 12.2314 17.6104 14.3003 16.1445 15.8125C16.0332 15.9331 16.0239 16.0444 16.1353 16.1743L16.5527 16.6382C16.6548 16.7681 16.7847 16.7681 16.9053 16.6475C18.603 14.9404 19.6606 12.5747 19.6606 9.96777C19.6606 4.76318 15.4023 0.467773 10.1606 0.467773C4.91895 0.467773 0.660645 4.76318 0.660645 9.96777ZM3.36035 9.96777C3.36035 11.7676 4.05615 13.3911 5.20654 14.6157C5.32715 14.7456 5.45703 14.7363 5.56836 14.6157L5.98584 14.1519C6.10645 14.0312 6.08789 13.9199 5.97656 13.79C5.05811 12.7788 4.50146 11.4429 4.50146 9.96777C4.50146 6.87842 7.05273 4.30859 10.1606 4.30859C13.2686 4.30859 15.8198 6.87842 15.8198 9.96777C15.8198 11.4429 15.2632 12.7788 14.3447 13.7808C14.2334 13.9106 14.2148 14.0312 14.3354 14.1426L14.7622 14.6157C14.8643 14.7363 15.0034 14.7456 15.1147 14.6157C16.2559 13.3911 16.9609 11.7676 16.9609 9.96777C16.9609 6.23828 13.9087 3.16748 10.1606 3.16748C6.4126 3.16748 3.36035 6.23828 3.36035 9.96777ZM6.06006 9.96777C6.06006 10.9512 6.40332 11.8511 6.99707 12.5747C7.09912 12.6953 7.229 12.6953 7.34961 12.5654L7.78564 12.1201C7.89697 11.9995 7.8877 11.8789 7.8042 11.749C7.42383 11.2573 7.20117 10.6357 7.20117 9.96777C7.20117 8.35352 8.54639 7.0083 10.1606 7.0083C11.7749 7.0083 13.1201 8.35352 13.1201 9.96777C13.1201 10.6357 12.8975 11.2573 12.5171 11.749C12.4243 11.8789 12.415 11.9995 12.5356 12.1201L12.9717 12.5747C13.083 12.6953 13.2222 12.7046 13.3242 12.5654C13.918 11.8511 14.2612 10.9512 14.2612 9.96777C14.2612 7.72266 12.415 5.86719 10.1606 5.86719C7.90625 5.86719 6.06006 7.72266 6.06006 9.96777ZM4.1582 18.3916C3.87061 18.6978 4.04688 19.1616 4.48291 19.1616H15.8198C16.2559 19.1616 16.4321 18.6978 16.1538 18.3916L10.5503 12.0552C10.3276 11.8232 9.9751 11.8232 9.75244 12.0552L4.1582 18.3916Z" fill="white" fill-opacity="0.3" style="mix-blend-mode:lighten"/>
</svg>
