<svg width="30" height="14" viewBox="0 0 30 14" fill="none" xmlns="http://www.w3.org/2000/svg">
<rect x="2.29999" y="2.29999" width="18.7" height="9" rx="2" fill="white"/>
<path opacity="0.5" fill-rule="evenodd" clip-rule="evenodd" d="M23.2 0C25.4091 0 27.2 1.79086 27.2 4V9.5C27.2 11.7091 25.4091 13.5 23.2 13.5H4C1.79086 13.5 0 11.7091 0 9.5V4C0 1.79086 1.79086 0 4 0H23.2ZM23.2 1H4C2.34315 1 1 2.34315 1 4V9.5C1 11.1569 2.34315 12.5 4 12.5H23.2C24.8569 12.5 26.2 11.1569 26.2 9.5V4C26.2 2.34315 24.8569 1 23.2 1ZM29.3023 5.38043C28.9355 4.87224 28.3 4.6 28.3 4.6V9C28.3 9 28.913 8.70352 29.3023 8.22414C29.6569 7.78758 29.6698 7.26887 29.679 6.90303C29.6799 6.86714 29.6807 6.83273 29.6819 6.8C29.6946 6.4337 29.6691 5.88862 29.3023 5.38043Z" fill="white"/>
</svg>
