<svg width="21" height="14" viewBox="0 0 21 14" fill="none" xmlns="http://www.w3.org/2000/svg">
<path fill-rule="evenodd" clip-rule="evenodd" d="M17.0913 1.04077C17 1.26129 17 1.54086 17 2.09999V11.5C17 12.0591 17 12.3387 17.0913 12.5592C17.2131 12.8532 17.4467 13.0869 17.7408 13.2086C17.9613 13.3 18.2409 13.3 18.8 13.3C19.3591 13.3 19.6387 13.3 19.8592 13.2086C20.1533 13.0869 20.3869 12.8532 20.5087 12.5592C20.6 12.3387 20.6 12.0591 20.6 11.5V2.09999C20.6 1.54086 20.6 1.26129 20.5087 1.04077C20.3869 0.746734 20.1533 0.513125 19.8592 0.391332C19.6387 0.299988 19.3591 0.299988 18.8 0.299988C18.2409 0.299988 17.9613 0.299988 17.7408 0.391332C17.4467 0.513125 17.2131 0.746734 17.0913 1.04077ZM11.3 5.09999C11.3 4.54086 11.3 4.2613 11.3913 4.04077C11.5131 3.74674 11.7467 3.51313 12.0408 3.39134C12.2613 3.29999 12.5409 3.29999 13.1 3.29999C13.6591 3.29999 13.9387 3.29999 14.1592 3.39134C14.4533 3.51313 14.6869 3.74674 14.8087 4.04077C14.9 4.2613 14.9 4.54086 14.9 5.09999V11.5C14.9 12.0591 14.9 12.3387 14.8087 12.5592C14.6869 12.8532 14.4533 13.0869 14.1592 13.2086C13.9387 13.3 13.6591 13.3 13.1 13.3C12.5409 13.3 12.2613 13.3 12.0408 13.2086C11.7467 13.0869 11.5131 12.8532 11.3913 12.5592C11.3 12.3387 11.3 12.0591 11.3 11.5V5.09999ZM5.79134 7.04077C5.7 7.26129 5.7 7.54086 5.7 8.09999V11.5C5.7 12.0591 5.7 12.3387 5.79134 12.5592C5.91314 12.8532 6.14675 13.0869 6.44078 13.2086C6.66131 13.3 6.94087 13.3 7.5 13.3C8.05913 13.3 8.33869 13.3 8.55922 13.2086C8.85325 13.0869 9.08686 12.8532 9.20866 12.5592C9.3 12.3387 9.3 12.0591 9.3 11.5V8.09999C9.3 7.54086 9.3 7.26129 9.20866 7.04077C9.08686 6.74673 8.85325 6.51312 8.55922 6.39133C8.33869 6.29999 8.05913 6.29999 7.5 6.29999C6.94087 6.29999 6.66131 6.29999 6.44078 6.39133C6.14675 6.51312 5.91314 6.74673 5.79134 7.04077ZM0.0913444 9.04077C0 9.26129 0 9.54086 0 10.1V11.5C0 12.0591 0 12.3387 0.0913444 12.5592C0.213137 12.8532 0.446746 13.0869 0.74078 13.2086C0.961305 13.3 1.24087 13.3 1.8 13.3C2.35913 13.3 2.63869 13.3 2.85922 13.2086C3.15325 13.0869 3.38686 12.8532 3.50866 12.5592C3.6 12.3387 3.6 12.0591 3.6 11.5V10.1C3.6 9.54086 3.6 9.26129 3.50866 9.04077C3.38686 8.74673 3.15325 8.51313 2.85922 8.39133C2.63869 8.29999 2.35913 8.29999 1.8 8.29999C1.24087 8.29999 0.961305 8.29999 0.74078 8.39133C0.446746 8.51313 0.213137 8.74673 0.0913444 9.04077Z" fill="white"/>
</svg>
