<svg width="23" height="14" viewBox="0 0 23 14" fill="none" xmlns="http://www.w3.org/2000/svg">
<path d="M2.11719 13.0078C2.4375 13.0078 2.70312 12.9062 3.01562 12.7188L10.9766 8.03125C11.4062 7.78125 11.6406 7.5 11.7266 7.17188V11.6719C11.7266 12.5391 12.2422 13.0078 12.8516 13.0078C13.1719 13.0078 13.4375 12.9062 13.75 12.7188L21.7188 8.03125C22.2656 7.70312 22.5078 7.32031 22.5078 6.86719C22.5078 6.42188 22.2656 6.03906 21.7188 5.71094L13.75 1.02344C13.4375 0.835938 13.1719 0.734375 12.8516 0.734375C12.2422 0.734375 11.7266 1.20312 11.7266 2.07031V6.57031C11.6406 6.24219 11.4062 5.96094 10.9766 5.71094L3.01562 1.02344C2.69531 0.835938 2.4375 0.734375 2.11719 0.734375C1.50781 0.734375 0.992188 1.20312 0.992188 2.07031V11.6719C0.992188 12.5391 1.50781 13.0078 2.11719 13.0078Z" fill="white"/>
</svg>
