<svg width="23" height="32" viewBox="0 0 23 32" fill="none" xmlns="http://www.w3.org/2000/svg">
<path fill-rule="evenodd" clip-rule="evenodd" d="M18.027 29.6483C16.5574 29.6483 15.366 28.4471 15.366 26.9657C15.366 25.4841 16.5574 24.2831 18.027 24.2831C19.4965 24.2831 20.6881 25.4841 20.6881 26.9657C20.6881 28.4471 19.4965 29.6483 18.027 29.6483ZM17.7288 17.87C19.1985 17.87 20.3898 19.071 20.3898 20.5526C20.3898 22.0341 19.1985 23.2352 17.7288 23.2352C16.2591 23.2352 15.0678 22.0341 15.0678 20.5526C15.0678 19.071 16.2591 17.87 17.7288 17.87ZM11.3423 16.7218C9.87284 16.7218 8.68126 15.5208 8.68126 14.0392C8.68126 12.5578 9.87284 11.3566 11.3423 11.3566C12.812 11.3566 14.0033 12.5578 14.0033 14.0392C14.0033 15.5208 12.812 16.7218 11.3423 16.7218ZM11.3423 23.2352C9.87284 23.2352 8.68126 22.0341 8.68126 20.5526C8.68126 19.071 9.87284 17.87 11.3423 17.87C12.812 17.87 14.0033 19.071 14.0033 20.5526C14.0033 22.0341 12.812 23.2352 11.3423 23.2352ZM14.0033 27.1661C14.0033 28.6475 12.812 29.8487 11.3423 29.8487H5.01188C3.54241 29.8487 2.35084 28.6475 2.35084 27.1661C2.35084 25.6844 3.54241 24.4835 5.01188 24.4835H11.3423C12.812 24.4835 14.0033 25.6844 14.0033 27.1661ZM4.95581 17.87C6.42565 17.87 7.61685 19.071 7.61685 20.5526C7.61685 22.0341 6.42565 23.2352 4.95581 23.2352C3.48634 23.2352 2.29477 22.0341 2.29477 20.5526C2.29477 19.071 3.48634 17.87 4.95581 17.87ZM4.95581 11.3566C6.42565 11.3566 7.61685 12.5578 7.61685 14.0392C7.61685 15.5208 6.42565 16.7218 4.95581 16.7218C3.48634 16.7218 2.29477 15.5208 2.29477 14.0392C2.29477 12.5578 3.48634 11.3566 4.95581 11.3566ZM20.3898 14.0392C20.3898 15.5208 19.1985 16.7218 17.7288 16.7218C16.2591 16.7218 15.0678 15.5208 15.0678 14.0392C15.0678 12.5578 16.2591 11.3566 17.7288 11.3566C19.1985 11.3566 20.3898 12.5578 20.3898 14.0392ZM2.8437 9.05416H19.7415V2.84145H2.8437V9.05416ZM19.0013 0H3.69866C1.65593 0 0 1.66915 0 3.72843V28.2712C0 30.3306 1.65593 31.9998 3.69866 31.9998H19.0013C21.0441 31.9998 22.7 30.3306 22.7 28.2712V3.72843C22.7 1.66915 21.0441 0 19.0013 0Z" fill="white"/>
</svg>
