<svg width="35" height="32" viewBox="0 0 35 32" fill="none" xmlns="http://www.w3.org/2000/svg">
<path fill-rule="evenodd" clip-rule="evenodd" d="M34.8646 15.1438L30.6906 22.3708L26.5176 15.1438L29.6526 15.2378C29.2586 8.01779 23.2866 2.28579 15.9786 2.28579C8.41461 2.28579 2.28261 8.42579 2.28261 15.9998C2.28261 23.5738 8.41461 29.7148 15.9786 29.7148C19.7086 29.7148 23.0906 28.2218 25.5606 25.7988C25.9606 25.4068 26.6146 25.4568 26.9756 25.8848L27.1596 26.1028C27.5126 26.5218 27.4646 27.1368 27.0706 27.5168C24.1966 30.2928 20.2866 31.9998 15.9786 31.9998C7.15361 31.9998 0.000610352 24.8368 0.000610352 15.9998C0.000610352 7.16379 7.15361 -0.000213623 15.9786 -0.000213623C24.5476 -0.000213623 31.5416 6.75579 31.9386 15.2378L34.8646 15.1438ZM17.6893 15.2416C18.1663 15.2416 18.5533 14.8556 18.5533 14.3776V12.1866C18.5533 10.9316 17.3893 9.90459 15.9603 9.90459C14.5313 9.90459 13.3673 10.9286 13.3673 12.1866V14.3776C13.3673 14.8556 13.7543 15.2416 14.2313 15.2416H17.6893ZM11.6383 12.1866C11.6383 10.0846 13.5783 8.38059 15.9603 8.38059C18.3473 8.38059 20.2823 10.0916 20.2823 12.1866V14.3736C20.2823 14.8516 20.6693 15.2376 21.1463 15.2376C21.6233 15.2376 22.0113 15.6246 22.0113 16.1026V21.9926C22.0113 22.4706 21.6233 22.8566 21.1463 22.8566H10.7743C10.2973 22.8566 9.90931 22.4706 9.90931 21.9926V16.1026C9.90931 15.6246 10.2973 15.2376 10.7743 15.2376C11.2513 15.2376 11.6383 14.8516 11.6383 14.3736V12.1866Z" fill="white"/>
</svg>
