<svg width="13" height="35" viewBox="0 0 13 35" fill="none" xmlns="http://www.w3.org/2000/svg">
<path fill-rule="evenodd" clip-rule="evenodd" d="M4.08848 16.3866C4.08848 15.0494 5.16803 13.9652 6.49996 13.9652C7.8319 13.9652 8.91145 15.0494 8.91145 16.3866V19.2914C8.91145 20.6286 7.8319 21.7126 6.49996 21.7126C5.16803 21.7126 4.08848 20.6286 4.08848 19.2914V16.3866ZM0 5.65169L0.0497711 5.73915L0.00259999 5.65784C0.00259999 5.65784 0.383126 6.91187 1.26192 8.42193C1.92863 9.56706 2.55226 10.3195 2.84364 10.6458L2.99945 10.9194V32.4275C2.99945 33.5721 3.92338 34.5 5.06329 34.5H7.93683C9.07655 34.5 10.0007 33.5721 10.0007 32.4275V10.8886L10.1158 10.6876C10.3851 10.3913 11.0392 9.62058 11.7404 8.41559C12.6196 6.90572 12.9999 5.65169 12.9999 5.65169V3.94509H0V5.65169ZM13 1.47675C13 0.937279 12.5645 0.5 12.0272 0.5H0.97284C0.435757 0.5 7.42853e-05 0.937279 7.42853e-05 1.47675C7.42853e-05 1.48103 0.00137428 1.48495 0.00137428 1.48905H7.42853e-05V2.44659H0.903941C0.927155 2.44808 0.949255 2.45349 0.97284 2.45349H12.0272C12.0508 2.45349 12.0729 2.44808 12.0961 2.44659H13V1.48905H12.9987C12.9989 1.48495 13 1.48103 13 1.47675ZM6.25666 20.684C7.05764 20.819 7.81591 20.2764 7.95037 19.4721C8.08482 18.6677 7.54458 17.9063 6.74341 17.7713C5.94243 17.6365 5.18417 18.1789 5.04971 18.9834C4.91525 19.7876 5.45568 20.549 6.25666 20.684Z" fill="white"/>
</svg>
