<svg width="35" height="35" viewBox="0 0 35 35" fill="none" xmlns="http://www.w3.org/2000/svg">
<path d="M18.5469 1.89062C18.5469 1.32812 18.0625 0.828125 17.5 0.828125C16.9219 0.828125 16.4375 1.32812 16.4375 1.89062V5.3125C16.4375 5.89062 16.9219 6.375 17.5 6.375C18.0625 6.375 18.5469 5.89062 18.5469 5.3125V1.89062ZM25.4531 8.21875C25.0469 8.625 25.0469 9.28125 25.4531 9.6875C25.8594 10.0938 26.5312 10.1094 26.9531 9.6875L29.375 7.26562C29.7812 6.85938 29.7812 6.1875 29.375 5.78125C28.9688 5.375 28.2969 5.375 27.8906 5.78125L25.4531 8.21875ZM8.03125 9.6875C8.42188 10.0938 9.10938 10.0938 9.51562 9.6875C9.92188 9.3125 9.92188 8.60938 9.51562 8.21875L7.10938 5.78125C6.71875 5.375 6.03125 5.375 5.625 5.78125C5.21875 6.17188 5.21875 6.85938 5.60938 7.25L8.03125 9.6875ZM17.4688 9.95312C13.2656 9.95312 9.78125 13.4375 9.78125 17.6562C9.78125 21.875 13.2656 25.3594 17.4688 25.3594C21.6875 25.3594 25.1719 21.875 25.1719 17.6562C25.1719 13.4375 21.6875 9.95312 17.4688 9.95312ZM33.2344 18.7188C33.7969 18.7188 34.2812 18.2188 34.2812 17.6562C34.2812 17.0938 33.7969 16.5938 33.2344 16.5938H29.8125C29.25 16.5938 28.7656 17.0938 28.7656 17.6562C28.7656 18.2188 29.25 18.7188 29.8125 18.7188H33.2344ZM1.76562 16.5938C1.1875 16.5938 0.703125 17.0938 0.703125 17.6562C0.703125 18.2188 1.1875 18.7188 1.76562 18.7188H5.17188C5.73438 18.7188 6.23438 18.2188 6.23438 17.6562C6.23438 17.0938 5.73438 16.5938 5.17188 16.5938H1.76562ZM26.9375 25.625C26.5312 25.2188 25.8594 25.2188 25.4531 25.625C25.0469 26.0312 25.0469 26.7031 25.4531 27.1094L27.8906 29.5469C28.2969 29.9531 28.9688 29.9531 29.375 29.5469C29.7812 29.1406 29.7812 28.4688 29.375 28.0625L26.9375 25.625ZM5.59375 28.0469C5.1875 28.4375 5.1875 29.125 5.59375 29.5312C5.98438 29.9375 6.67188 29.9531 7.07812 29.5469L9.51562 27.125C9.92188 26.7188 9.92188 26.0469 9.51562 25.6406C9.125 25.2344 8.4375 25.2344 8.03125 25.6406L5.59375 28.0469ZM18.5469 30C18.5469 29.4375 18.0625 28.9375 17.5 28.9375C16.9219 28.9375 16.4375 29.4375 16.4375 30V33.4219C16.4375 33.9844 16.9219 34.4844 17.5 34.4844C18.0625 34.4844 18.5469 33.9844 18.5469 33.4219V30Z" fill="white"/>
</svg>
