<svg width="16" height="21" viewBox="0 0 16 21" fill="none" xmlns="http://www.w3.org/2000/svg">
<path d="M1.73633 20.1353H4.51953C5.58154 20.1353 6.14307 19.5737 6.14307 18.4995V1.87354C6.14307 0.762695 5.58154 0.25 4.51953 0.25H1.73633C0.674316 0.25 0.112793 0.811523 0.112793 1.87354V18.4995C0.112793 19.5737 0.674316 20.1353 1.73633 20.1353ZM10.6108 20.1353H13.3818C14.4561 20.1353 15.0054 19.5737 15.0054 18.4995V1.87354C15.0054 0.762695 14.4561 0.25 13.3818 0.25H10.6108C9.53662 0.25 8.9751 0.811523 8.9751 1.87354V18.4995C8.9751 19.5737 9.53662 20.1353 10.6108 20.1353Z" fill="white"/>
</svg>
