<svg width="22" height="14" viewBox="0 0 22 14" fill="none" xmlns="http://www.w3.org/2000/svg">
<path d="M9.85156 13.0078C10.4609 13.0078 10.9766 12.5391 10.9766 11.6719V7.17188C11.0625 7.5 11.3047 7.78125 11.7266 8.03125L19.6875 12.7188C20 12.9062 20.2656 13.0078 20.5859 13.0078C21.1953 13.0078 21.7109 12.5391 21.7109 11.6719V2.07031C21.7109 1.20312 21.1953 0.734375 20.5859 0.734375C20.2656 0.734375 20.0078 0.835938 19.6875 1.02344L11.7266 5.71094C11.2969 5.96094 11.0625 6.24219 10.9766 6.57031V2.07031C10.9766 1.20312 10.4609 0.734375 9.85156 0.734375C9.53125 0.734375 9.27344 0.835938 8.95312 1.02344L0.992188 5.71094C0.4375 6.03906 0.203125 6.42188 0.203125 6.86719C0.203125 7.32031 0.4375 7.70312 0.992188 8.03125L8.95312 12.7188C9.26562 12.9062 9.53125 13.0078 9.85156 13.0078Z" fill="white"/>
</svg>
