<svg width="15" height="13" viewBox="0 0 15 13" fill="none" xmlns="http://www.w3.org/2000/svg">
<path fill-rule="evenodd" clip-rule="evenodd" d="M7.50041 2.78448C9.67678 2.78457 11.7699 3.63869 13.3472 5.17028C13.466 5.28852 13.6559 5.28703 13.7728 5.16693L14.9082 3.9966C14.9675 3.93569 15.0005 3.85318 15 3.76733C14.9995 3.68148 14.9655 3.59937 14.9056 3.53917C10.7657 -0.513058 4.23448 -0.513058 0.0945555 3.53917C0.0345859 3.59933 0.000559834 3.68141 6.84646e-06 3.76726C-0.000546141 3.85311 0.0324195 3.93565 0.091609 3.9966L1.22732 5.16693C1.34423 5.28721 1.53422 5.28871 1.65292 5.17028C3.23043 3.63859 5.32382 2.78447 7.50041 2.78448ZM10.7357 8.55976C10.8555 8.67611 11.0444 8.67358 11.1613 8.55408L12.2953 7.38375C12.3551 7.32236 12.3882 7.23908 12.3873 7.15255C12.3865 7.06601 12.3517 6.98344 12.2908 6.92331C9.59157 4.3589 5.41154 4.3589 2.71235 6.92331C2.65138 6.98344 2.6166 7.06605 2.6158 7.15262C2.615 7.23918 2.64825 7.32245 2.7081 7.38375L3.84184 8.55408C3.95871 8.67358 4.14756 8.67611 4.26745 8.55976C5.15324 7.74053 6.30543 7.28661 7.50041 7.28611C8.69619 7.28603 9.84929 7.73999 10.7357 8.55976ZM9.77215 10.4389C9.77389 10.5257 9.74049 10.6093 9.67984 10.6701L7.71812 12.6921C7.66062 12.7516 7.58222 12.785 7.50041 12.785C7.4186 12.785 7.3402 12.7516 7.2827 12.6921L5.32066 10.6701C5.26005 10.6093 5.2267 10.5256 5.2285 10.4388C5.2303 10.352 5.26708 10.2699 5.33015 10.2117C6.58297 9.12943 8.41785 9.12943 9.67067 10.2117C9.7337 10.2699 9.77042 10.3521 9.77215 10.4389Z" fill="white"/>
</svg>
