<svg width="60" height="60" viewBox="0 0 60 60" fill="none" xmlns="http://www.w3.org/2000/svg">
<path fill-rule="evenodd" clip-rule="evenodd" d="M39.0815 0C45.105 0 48.116 0 51.3585 1.025C54.8985 2.3135 57.6865 5.1015 58.975 8.6415C60 11.8835 60 14.8955 60 20.9185V39.0815C60 45.105 60 48.116 58.975 51.3585C57.6865 54.8985 54.8985 57.6865 51.3585 58.9745C48.116 60 45.105 60 39.0815 60H20.9185C14.895 60 11.8835 60 8.6415 58.9745C5.1015 57.6865 2.3135 54.8985 1.025 51.3585C0 48.116 0 45.105 0 39.0815V20.9185C0 14.8955 0 11.8835 1.025 8.6415C2.3135 5.1015 5.1015 2.3135 8.6415 1.025C11.8835 0 14.895 0 20.9185 0H39.0815Z" fill="white"/>
<path fill-rule="evenodd" clip-rule="evenodd" d="M18.4727 50H21.0508V21.8164H18.4336C17.5938 22.3242 11.6172 26.543 10.8359 27.0312V29.8828C11.6562 29.375 17.7695 25.0781 18.3945 24.6875H18.4727V50ZM38.9972 50V43.6328H24.7003V41.1914C27.7667 36.0352 31.4581 30.5078 37.6886 21.7773H41.5948V41.2695H45.7941V43.6328H41.5948V50H38.9972ZM27.3956 41.1914V41.2695H38.9972V24.1211H38.9581C33.7628 31.3086 30.2081 36.6211 27.3956 41.1914Z" fill="black"/>
<path fill-rule="evenodd" clip-rule="evenodd" d="M17.626 16V8.24951H16.5034L13.8501 14.6626H13.7642L11.1108 8.24951H9.98828V16H10.8906V10.0811H10.9551L13.3989 15.9463H14.2153L16.6592 10.0811H16.7236V16H17.626ZM21.9338 16.1021C20.2848 16.1021 19.2643 14.9634 19.2643 13.105C19.2643 11.2412 20.2848 10.1079 21.9338 10.1079C23.5827 10.1079 24.6032 11.2412 24.6032 13.105C24.6032 14.9634 23.5827 16.1021 21.9338 16.1021ZM21.9338 15.2695C23.0295 15.2695 23.6471 14.4746 23.6471 13.105C23.6471 11.73 23.0295 10.9404 21.9338 10.9404C20.8381 10.9404 20.2204 11.73 20.2204 13.105C20.2204 14.4746 20.8381 15.2695 21.9338 15.2695ZM26.1234 16H27.0472V12.5732C27.0472 11.5581 27.6434 10.9404 28.5672 10.9404C29.4911 10.9404 29.9315 11.4346 29.9315 12.4766V16H30.8553V12.251C30.8553 10.876 30.1302 10.1079 28.8304 10.1079C27.9442 10.1079 27.3802 10.4839 27.0902 11.123H27.0043V10.21H26.1234V16ZM34.7549 16.1021C33.2725 16.1021 32.3218 14.9258 32.3218 13.105C32.3218 11.2896 33.2832 10.1079 34.7549 10.1079C35.5606 10.1079 36.2427 10.4893 36.5704 11.123H36.6509V7.91113H37.5747V16H36.6939V15.0762H36.6079C36.2427 15.7207 35.5552 16.1021 34.7549 16.1021ZM34.9698 10.9404C33.917 10.9404 33.2779 11.7568 33.2779 13.105C33.2779 14.4585 33.9117 15.2695 34.9698 15.2695C36.0225 15.2695 36.6724 14.4424 36.6724 13.105C36.6724 11.7783 36.0171 10.9404 34.9698 10.9404ZM41.2219 15.291C42.1726 15.291 42.8762 14.668 42.8762 13.8408V13.3091L41.3186 13.4111C40.4377 13.4702 40.051 13.7764 40.051 14.3564C40.051 14.9473 40.5505 15.291 41.2219 15.291ZM41.05 16.1021C39.9275 16.1021 39.0949 15.436 39.0949 14.3779C39.0949 13.3413 39.8576 12.7451 41.2058 12.6646L42.8762 12.5625V12.0361C42.8762 11.3218 42.4304 10.9297 41.5656 10.9297C40.8728 10.9297 40.3894 11.1929 40.2605 11.6494H39.3259C39.4494 10.7202 40.3625 10.1079 41.5979 10.1079C43.0105 10.1079 43.8 10.833 43.8 12.0361V16H42.9192V15.146H42.8332C42.4572 15.7637 41.8235 16.1021 41.05 16.1021ZM45.8573 18.0947C46.8832 18.0947 47.3451 17.6973 47.8393 16.3545L50.1005 10.21H49.1176L47.5331 14.9741H47.4472L45.8573 10.21H44.8583L47.0014 16.0054L46.8939 16.3491C46.6522 17.0474 46.3622 17.2998 45.8305 17.2998C45.7016 17.2998 45.5565 17.2944 45.4437 17.2729V18.0625C45.5727 18.084 45.7338 18.0947 45.8573 18.0947Z" fill="#E34E42"/>
</svg>
