<svg width="60" height="60" viewBox="0 0 60 60" fill="none" xmlns="http://www.w3.org/2000/svg">
<path fill-rule="evenodd" clip-rule="evenodd" d="M39.0815 0C45.105 0 48.116 0 51.3585 1.025C54.8985 2.3135 57.6865 5.1015 58.975 8.6415C60 11.8835 60 14.8955 60 20.9185V39.0815C60 45.105 60 48.116 58.975 51.3585C57.6865 54.8985 54.8985 57.6865 51.3585 58.9745C48.116 60 45.105 60 39.0815 60H20.9185C14.895 60 11.8835 60 8.6415 58.9745C5.1015 57.6865 2.3135 54.8985 1.025 51.3585C0 48.116 0 45.105 0 39.0815V20.9185C0 14.8955 0 11.8835 1.025 8.6415C2.3135 5.1015 5.1015 2.3135 8.6415 1.025C11.8835 0 14.895 0 20.9185 0H39.0815Z" fill="url(#paint0_linear_119_3011)"/>
<path fill-rule="evenodd" clip-rule="evenodd" d="M24.5746 14H35.4267C36.1709 14 37.1474 14.4843 37.6055 15.0815L40.5876 19.4785C40.879 19.9064 41.3633 20.1663 41.8805 20.1663H48.2935C49.7898 20.1663 51 21.387 51 22.9003V42.767C51 44.2777 49.7898 45.5023 48.2935 45.5023H11.7078C10.2115 45.5023 9 44.2803 9 42.767V22.9003C9 21.3896 10.2115 20.1663 11.7078 20.1663H18.1471C18.6472 20.1663 19.1158 19.9169 19.3993 19.5022L22.3945 15.0815C22.8539 14.4856 23.8343 14 24.5746 14ZM21.0494 32.5479C21.0494 37.545 25.0568 41.5957 30.0006 41.5957C34.9445 41.5957 38.9506 37.545 38.9506 32.5479C38.9506 27.5495 34.9445 23.5 30.0006 23.5C25.0568 23.5 21.0494 27.5495 21.0494 32.5479ZM14.0432 17H16.1315C16.7077 17 17.1736 17.469 17.1736 18.0553V19.1096H13V18.0553C13 17.472 13.464 17 14.0432 17ZM22.5494 32.4911C22.5494 28.329 25.8845 24.9584 30.0007 24.9584C34.1168 24.9584 37.452 28.329 37.452 32.4911C37.452 36.6518 34.1168 40.0238 30.0007 40.0238C25.8845 40.0238 22.5494 36.6518 22.5494 32.4911Z" fill="#2E2E30"/>
<mask id="mask0_119_3011" style="mask-type:alpha" maskUnits="userSpaceOnUse" x="9" y="14" width="42" height="32">
<path fill-rule="evenodd" clip-rule="evenodd" d="M24.5746 14H35.4267C36.1709 14 37.1474 14.4843 37.6055 15.0815L40.5876 19.4785C40.879 19.9064 41.3633 20.1663 41.8805 20.1663H48.2935C49.7898 20.1663 51 21.387 51 22.9003V42.767C51 44.2777 49.7898 45.5023 48.2935 45.5023H11.7078C10.2115 45.5023 9 44.2803 9 42.767V22.9003C9 21.3896 10.2115 20.1663 11.7078 20.1663H18.1471C18.6472 20.1663 19.1158 19.9169 19.3993 19.5022L22.3945 15.0815C22.8539 14.4856 23.8343 14 24.5746 14ZM21.0494 32.5479C21.0494 37.545 25.0568 41.5957 30.0006 41.5957C34.9445 41.5957 38.9506 37.545 38.9506 32.5479C38.9506 27.5495 34.9445 23.5 30.0006 23.5C25.0568 23.5 21.0494 27.5495 21.0494 32.5479ZM14.0432 17H16.1315C16.7077 17 17.1736 17.469 17.1736 18.0553V19.1096H13V18.0553C13 17.472 13.464 17 14.0432 17ZM22.5494 32.4911C22.5494 28.329 25.8845 24.9584 30.0007 24.9584C34.1168 24.9584 37.452 28.329 37.452 32.4911C37.452 36.6518 34.1168 40.0238 30.0007 40.0238C25.8845 40.0238 22.5494 36.6518 22.5494 32.4911Z" fill="white"/>
</mask>
<g mask="url(#mask0_119_3011)">
<path fill-rule="evenodd" clip-rule="evenodd" d="M40.1624 23.5894C40.1624 24.3454 40.7687 24.9584 41.5169 24.9584C42.2664 24.9584 42.8714 24.3454 42.8714 23.5894C42.8714 22.8334 42.2664 22.2191 41.5169 22.2191C40.7687 22.2191 40.1624 22.8334 40.1624 23.5894Z" fill="#F6D254"/>
</g>
<defs>
<linearGradient id="paint0_linear_119_3011" x1="0" y1="0" x2="0" y2="60" gradientUnits="userSpaceOnUse">
<stop stop-color="#DBDDDE"/>
<stop offset="1" stop-color="#898B91"/>
</linearGradient>
</defs>
</svg>
