<svg width="60" height="60" viewBox="0 0 60 60" fill="none" xmlns="http://www.w3.org/2000/svg">
<path fill-rule="evenodd" clip-rule="evenodd" d="M39.0815 0C45.105 0 48.116 0 51.3585 1.025C54.8985 2.3135 57.6865 5.1015 58.975 8.6415C60 11.8835 60 14.8955 60 20.9185V39.0815C60 45.105 60 48.116 58.975 51.3585C57.6865 54.8985 54.8985 57.6865 51.3585 58.9745C48.116 60 45.105 60 39.0815 60H20.9185C14.895 60 11.8835 60 8.6415 58.9745C5.1015 57.6865 2.3135 54.8985 1.025 51.3585C0 48.116 0 45.105 0 39.0815V20.9185C0 14.8955 0 11.8835 1.025 8.6415C2.3135 5.1015 5.1015 2.3135 8.6415 1.025C11.8835 0 14.895 0 20.9185 0H39.0815Z" fill="#1E1E1F"/>
<path fill-rule="evenodd" clip-rule="evenodd" d="M30 56C44.3594 56 56 44.3594 56 30C56 15.6406 44.3594 4 30 4C15.6406 4 4 15.6406 4 30C4 44.3594 15.6406 56 30 56Z" fill="url(#paint0_linear_119_2961)"/>
<path fill-rule="evenodd" clip-rule="evenodd" d="M28.8 12V7.746H28.41C28.382 7.906 28.33 8.038 28.254 8.142C28.178 8.246 28.085 8.328 27.975 8.388C27.865 8.448 27.742 8.489 27.606 8.511C27.47 8.533 27.33 8.544 27.186 8.544V8.952H28.29V12H28.8ZM30.264 9.252H30.774C30.77 9.124 30.783 8.997 30.813 8.871C30.843 8.745 30.892 8.632 30.96 8.532C31.028 8.432 31.115 8.351 31.221 8.289C31.327 8.227 31.454 8.196 31.602 8.196C31.714 8.196 31.82 8.214 31.92 8.25C32.02 8.286 32.107 8.338 32.181 8.406C32.255 8.474 32.314 8.555 32.358 8.649C32.402 8.743 32.424 8.848 32.424 8.964C32.424 9.112 32.401 9.242 32.355 9.354C32.309 9.466 32.241 9.57 32.151 9.666C32.061 9.762 31.948 9.857 31.812 9.951C31.676 10.045 31.518 10.148 31.338 10.26C31.19 10.348 31.048 10.442 30.912 10.542C30.776 10.642 30.654 10.758 30.546 10.89C30.438 11.022 30.349 11.177 30.279 11.355C30.209 11.533 30.164 11.748 30.144 12H32.922V11.55H30.738C30.762 11.418 30.813 11.301 30.891 11.199C30.969 11.097 31.063 11.002 31.173 10.914C31.283 10.826 31.404 10.743 31.536 10.665C31.668 10.587 31.8 10.508 31.932 10.428C32.064 10.344 32.192 10.256 32.316 10.164C32.44 10.072 32.55 9.969 32.646 9.855C32.742 9.741 32.819 9.612 32.877 9.468C32.935 9.324 32.964 9.158 32.964 8.97C32.964 8.77 32.929 8.594 32.859 8.442C32.789 8.29 32.694 8.163 32.574 8.061C32.454 7.959 32.313 7.881 32.151 7.827C31.989 7.773 31.816 7.746 31.632 7.746C31.408 7.746 31.208 7.784 31.032 7.86C30.856 7.936 30.709 8.041 30.591 8.175C30.473 8.309 30.386 8.468 30.33 8.652C30.274 8.836 30.252 9.036 30.264 9.252Z" fill="black"/>
<path d="M28.8 12V12.15H28.95V12H28.8ZM28.8 7.746H28.95V7.596H28.8V7.746ZM28.41 7.746V7.596H28.284L28.2623 7.72015L28.41 7.746ZM27.186 8.544V8.394H27.036V8.544H27.186ZM27.186 8.952H27.036V9.102H27.186V8.952ZM28.29 8.952H28.44V8.802H28.29V8.952ZM28.29 12H28.14V12.15H28.29V12ZM30.774 9.252V9.402H30.9288L30.924 9.24732L30.774 9.252ZM31.338 10.26L31.4147 10.389L31.4173 10.3874L31.338 10.26ZM30.144 12L29.9945 11.9881L29.9817 12.15H30.144V12ZM32.922 12V12.15H33.072V12H32.922ZM32.922 11.55H33.072V11.4H32.922V11.55ZM30.738 11.55L30.5905 11.5232L30.5583 11.7H30.738V11.55ZM31.932 10.428L32.0098 10.5563L32.0126 10.5546L31.932 10.428ZM28.95 12V7.746H28.65V12H28.95ZM28.8 7.596H28.41V7.896H28.8V7.596ZM28.2623 7.72015C28.2372 7.86325 28.1923 7.97226 28.1329 8.0535L28.3751 8.2305C28.4678 8.10374 28.5268 7.94876 28.5578 7.77186L28.2623 7.72015ZM28.1329 8.0535C28.0696 8.14017 27.9932 8.20721 27.9032 8.25632L28.0469 8.51969C28.1768 8.4488 28.2865 8.35184 28.3751 8.2305L28.1329 8.0535ZM27.9032 8.25632C27.8095 8.30741 27.703 8.34337 27.5821 8.36293L27.63 8.65908C27.7811 8.63463 27.9205 8.58859 28.0469 8.51969L27.9032 8.25632ZM27.5821 8.36293C27.4543 8.38359 27.3224 8.394 27.186 8.394V8.694C27.3377 8.694 27.4857 8.68241 27.63 8.65908L27.5821 8.36293ZM27.036 8.544V8.952H27.336V8.544H27.036ZM27.186 9.102H28.29V8.802H27.186V9.102ZM28.14 8.952V12H28.44V8.952H28.14ZM28.29 12.15H28.8V11.85H28.29V12.15ZM30.264 9.402H30.774V9.102H30.264V9.402ZM30.924 9.24732C30.9204 9.13273 30.932 9.01899 30.959 8.90575L30.6671 8.83626C30.6341 8.97502 30.6197 9.11527 30.6241 9.25669L30.924 9.24732ZM30.959 8.90575C30.985 8.7962 31.027 8.70024 31.0841 8.61635L30.836 8.44766C30.757 8.56377 30.701 8.6938 30.6671 8.83626L30.959 8.90575ZM31.0841 8.61635C31.1393 8.53509 31.2097 8.4694 31.2968 8.41848L31.1453 8.15952C31.0204 8.23261 30.9167 8.32891 30.836 8.44766L31.0841 8.61635ZM31.2968 8.41848C31.3755 8.37243 31.4752 8.346 31.602 8.346V8.046C31.4329 8.046 31.2786 8.08157 31.1453 8.15952L31.2968 8.41848ZM31.602 8.346C31.6977 8.346 31.7864 8.36131 31.8692 8.39114L31.9708 8.10887C31.8537 8.06669 31.7304 8.046 31.602 8.046V8.346ZM31.8692 8.39114C31.9516 8.42077 32.0211 8.46271 32.0795 8.51645L32.2825 8.29555C32.193 8.21329 32.0885 8.15123 31.9708 8.10887L31.8692 8.39114ZM32.0795 8.51645C32.1387 8.57079 32.1862 8.63571 32.2222 8.71259L32.4939 8.58541C32.4419 8.47429 32.3714 8.37722 32.2825 8.29555L32.0795 8.51645ZM32.2222 8.71259C32.2558 8.78446 32.274 8.86738 32.274 8.964H32.574C32.574 8.82863 32.5482 8.70155 32.4939 8.58541L32.2222 8.71259ZM32.274 8.964C32.274 9.09668 32.2534 9.20663 32.2163 9.29701L32.4938 9.41099C32.5487 9.27737 32.574 9.12732 32.574 8.964H32.274ZM32.2163 9.29701C32.1778 9.39075 32.1202 9.47955 32.0416 9.56341L32.2605 9.76859C32.3618 9.66046 32.4403 9.54125 32.4938 9.41099L32.2163 9.29701ZM32.0416 9.56341C31.9605 9.64996 31.8561 9.7382 31.7267 9.82761L31.8973 10.0744C32.04 9.97581 32.1616 9.87405 32.2605 9.76859L32.0416 9.56341ZM31.7267 9.82761C31.5932 9.91992 31.4373 10.0216 31.2588 10.1326L31.4173 10.3874C31.5988 10.2744 31.7589 10.1701 31.8973 10.0744L31.7267 9.82761ZM31.2614 10.1311C31.1093 10.2215 30.9632 10.3182 30.8232 10.4212L31.0009 10.6628C31.1329 10.5658 31.2708 10.4745 31.4147 10.3889L31.2614 10.1311ZM30.8232 10.4212C30.6769 10.5287 30.5458 10.6534 30.4299 10.795L30.6621 10.985C30.7623 10.8626 30.8751 10.7553 31.0009 10.6628L30.8232 10.4212ZM30.4299 10.795C30.311 10.9404 30.2145 11.1093 30.1394 11.3001L30.4186 11.4099C30.4836 11.2447 30.5651 11.1036 30.6621 10.985L30.4299 10.795ZM30.1394 11.3001C30.0626 11.4955 30.0153 11.7258 29.9945 11.9881L30.2936 12.0119C30.3127 11.7702 30.3555 11.5705 30.4186 11.4099L30.1394 11.3001ZM30.144 12.15H32.922V11.85H30.144V12.15ZM33.072 12V11.55H32.772V12H33.072ZM32.922 11.4H30.738V11.7H32.922V11.4ZM30.8856 11.5768C30.9056 11.4671 30.9473 11.3724 31.0102 11.2901L30.7719 11.1079C30.6788 11.2296 30.6185 11.3689 30.5905 11.5232L30.8856 11.5768ZM31.0102 11.2901C31.0801 11.1987 31.1653 11.1123 31.2667 11.0311L31.0793 10.7969C30.9607 10.8917 30.858 10.9953 30.7719 11.1079L31.0102 11.2901ZM31.2667 11.0311C31.3708 10.9479 31.4859 10.8689 31.6123 10.7941L31.4597 10.5359C31.3222 10.6171 31.1953 10.7041 31.0793 10.7969L31.2667 11.0311ZM31.6123 10.7941C31.7448 10.7159 31.8773 10.6366 32.0098 10.5563L31.8543 10.2997C31.7228 10.3794 31.5912 10.4581 31.4597 10.5359L31.6123 10.7941ZM32.0126 10.5546C32.1475 10.4687 32.2785 10.3786 32.4054 10.2845L32.2267 10.0435C32.1056 10.1334 31.9805 10.2193 31.8515 10.3015L32.0126 10.5546ZM32.4054 10.2845C32.5384 10.1858 32.657 10.0748 32.7608 9.95162L32.5313 9.75838C32.4431 9.86316 32.3416 9.95822 32.2267 10.0435L32.4054 10.2845ZM32.7608 9.95162C32.8674 9.82497 32.9525 9.68216 33.0162 9.52404L32.7379 9.41196C32.6856 9.54185 32.6166 9.65703 32.5313 9.75838L32.7608 9.95162ZM33.0162 9.52404C33.0827 9.3589 33.114 9.17326 33.114 8.97H32.814C32.814 9.14275 32.7874 9.2891 32.7379 9.41196L33.0162 9.52404ZM33.114 8.97C33.114 8.7525 33.0759 8.5544 32.9953 8.37926L32.7228 8.50475C32.7821 8.63361 32.814 8.7875 32.814 8.97H33.114ZM32.9953 8.37926C32.9167 8.2087 32.8088 8.06372 32.6712 7.94671L32.4769 8.17529C32.5792 8.26229 32.6613 8.3713 32.7228 8.50475L32.9953 8.37926ZM32.6712 7.94671C32.5354 7.83127 32.3771 7.74426 32.1985 7.6847L32.1036 7.9693C32.2489 8.01775 32.3727 8.08674 32.4769 8.17529L32.6712 7.94671ZM32.1985 7.6847C32.02 7.62522 31.8309 7.596 31.632 7.596V7.896C31.8012 7.896 31.958 7.92078 32.1036 7.9693L32.1985 7.6847ZM31.632 7.596C31.391 7.596 31.1702 7.63694 30.9726 7.72229L31.0915 7.99771C31.2458 7.93107 31.4251 7.896 31.632 7.896V7.596ZM30.9726 7.72229C30.7778 7.80641 30.6122 7.92404 30.4785 8.07587L30.7036 8.27413C30.8059 8.15796 30.9343 8.06559 31.0915 7.99771L30.9726 7.72229ZM30.4785 8.07587C30.3452 8.22715 30.2483 8.40545 30.1865 8.60833L30.4735 8.69568C30.5238 8.53055 30.6008 8.39085 30.7036 8.27413L30.4785 8.07587ZM30.1865 8.60833C30.1248 8.81112 30.1014 9.02893 30.1143 9.26032L30.4138 9.24368C30.4027 9.04307 30.4233 8.86088 30.4735 8.69568L30.1865 8.60833Z" fill="black"/>
<path fill-rule="evenodd" clip-rule="evenodd" d="M18.8 15V10.746H18.41C18.382 10.906 18.33 11.038 18.254 11.142C18.178 11.246 18.085 11.328 17.975 11.388C17.865 11.448 17.742 11.489 17.606 11.511C17.47 11.533 17.33 11.544 17.186 11.544V11.952H18.29V15H18.8ZM22.136 15V10.746H21.746C21.718 10.906 21.666 11.038 21.59 11.142C21.514 11.246 21.421 11.328 21.311 11.388C21.201 11.448 21.078 11.489 20.942 11.511C20.806 11.533 20.666 11.544 20.522 11.544V11.952H21.626V15H22.136Z" fill="black"/>
<path d="M18.8 15V15.15H18.95V15H18.8ZM18.8 10.746H18.95V10.596H18.8V10.746ZM18.41 10.746V10.596H18.284L18.2623 10.7201L18.41 10.746ZM17.186 11.544V11.394H17.036V11.544H17.186ZM17.186 11.952H17.036V12.102H17.186V11.952ZM18.29 11.952H18.44V11.802H18.29V11.952ZM18.29 15H18.14V15.15H18.29V15ZM22.136 15V15.15H22.286V15H22.136ZM22.136 10.746H22.286V10.596H22.136V10.746ZM21.746 10.746V10.596H21.62L21.5983 10.7201L21.746 10.746ZM20.522 11.544V11.394H20.372V11.544H20.522ZM20.522 11.952H20.372V12.102H20.522V11.952ZM21.626 11.952H21.776V11.802H21.626V11.952ZM21.626 15H21.476V15.15H21.626V15ZM18.95 15V10.746H18.65V15H18.95ZM18.8 10.596H18.41V10.896H18.8V10.596ZM18.2623 10.7201C18.2372 10.8633 18.1923 10.9723 18.1329 11.0535L18.3751 11.2305C18.4678 11.1037 18.5268 10.9488 18.5578 10.7719L18.2623 10.7201ZM18.1329 11.0535C18.0696 11.1402 17.9932 11.2072 17.9032 11.2563L18.0469 11.5197C18.1768 11.4488 18.2865 11.3518 18.3751 11.2305L18.1329 11.0535ZM17.9032 11.2563C17.8095 11.3074 17.703 11.3434 17.5821 11.3629L17.63 11.6591C17.7811 11.6346 17.9205 11.5886 18.0469 11.5197L17.9032 11.2563ZM17.5821 11.3629C17.4543 11.3836 17.3224 11.394 17.186 11.394V11.694C17.3377 11.694 17.4857 11.6824 17.63 11.6591L17.5821 11.3629ZM17.036 11.544V11.952H17.336V11.544H17.036ZM17.186 12.102H18.29V11.802H17.186V12.102ZM18.14 11.952V15H18.44V11.952H18.14ZM18.29 15.15H18.8V14.85H18.29V15.15ZM22.286 15V10.746H21.986V15H22.286ZM22.136 10.596H21.746V10.896H22.136V10.596ZM21.5983 10.7201C21.5732 10.8633 21.5283 10.9723 21.4689 11.0535L21.7111 11.2305C21.8038 11.1037 21.8628 10.9488 21.8938 10.7719L21.5983 10.7201ZM21.4689 11.0535C21.4056 11.1402 21.3292 11.2072 21.2392 11.2563L21.3829 11.5197C21.5128 11.4488 21.6225 11.3518 21.7111 11.2305L21.4689 11.0535ZM21.2392 11.2563C21.1455 11.3074 21.039 11.3434 20.9181 11.3629L20.966 11.6591C21.1171 11.6346 21.2565 11.5886 21.3829 11.5197L21.2392 11.2563ZM20.9181 11.3629C20.7903 11.3836 20.6584 11.394 20.522 11.394V11.694C20.6737 11.694 20.8217 11.6824 20.966 11.6591L20.9181 11.3629ZM20.372 11.544V11.952H20.672V11.544H20.372ZM20.522 12.102H21.626V11.802H20.522V12.102ZM21.476 11.952V15H21.776V11.952H21.476ZM21.626 15.15H22.136V14.85H21.626V15.15Z" fill="black"/>
<path fill-rule="evenodd" clip-rule="evenodd" d="M10.8 22.5V18.246H10.41C10.382 18.406 10.33 18.538 10.254 18.642C10.178 18.746 10.085 18.828 9.97504 18.888C9.86503 18.948 9.74204 18.989 9.60604 19.011C9.47003 19.033 9.33004 19.044 9.18604 19.044V19.452H10.29V22.5H10.8ZM12.792 20.406C12.792 20.302 12.793 20.187 12.795 20.061C12.797 19.935 12.807 19.809 12.825 19.683C12.843 19.557 12.869 19.434 12.903 19.314C12.937 19.194 12.987 19.089 13.053 18.999C13.119 18.909 13.202 18.836 13.302 18.78C13.402 18.724 13.524 18.696 13.668 18.696C13.812 18.696 13.934 18.724 14.034 18.78C14.134 18.836 14.217 18.909 14.283 18.999C14.349 19.089 14.399 19.194 14.433 19.314C14.467 19.434 14.493 19.557 14.511 19.683C14.529 19.809 14.539 19.935 14.541 20.061C14.543 20.187 14.544 20.302 14.544 20.406C14.544 20.566 14.539 20.745 14.529 20.943C14.519 21.141 14.487 21.327 14.433 21.501C14.379 21.675 14.292 21.822 14.172 21.942C14.052 22.062 13.884 22.122 13.668 22.122C13.452 22.122 13.284 22.062 13.164 21.942C13.044 21.822 12.957 21.675 12.903 21.501C12.849 21.327 12.817 21.141 12.807 20.943C12.797 20.745 12.792 20.566 12.792 20.406ZM12.252 20.412C12.252 20.568 12.256 20.73 12.264 20.898C12.272 21.066 12.292 21.23 12.324 21.39C12.356 21.55 12.402 21.701 12.462 21.843C12.522 21.985 12.604 22.11 12.708 22.218C12.812 22.326 12.943 22.411 13.101 22.473C13.259 22.535 13.448 22.566 13.668 22.566C13.892 22.566 14.082 22.535 14.238 22.473C14.394 22.411 14.524 22.326 14.628 22.218C14.732 22.11 14.814 21.985 14.874 21.843C14.934 21.701 14.98 21.55 15.012 21.39C15.044 21.23 15.064 21.066 15.072 20.898C15.08 20.73 15.084 20.568 15.084 20.412C15.084 20.256 15.08 20.094 15.072 19.926C15.064 19.758 15.044 19.594 15.012 19.434C14.98 19.274 14.934 19.122 14.874 18.978C14.814 18.834 14.732 18.708 14.628 18.6C14.524 18.492 14.393 18.406 14.235 18.342C14.077 18.278 13.888 18.246 13.668 18.246C13.448 18.246 13.259 18.278 13.101 18.342C12.943 18.406 12.812 18.492 12.708 18.6C12.604 18.708 12.522 18.834 12.462 18.978C12.402 19.122 12.356 19.274 12.324 19.434C12.292 19.594 12.272 19.758 12.264 19.926C12.256 20.094 12.252 20.256 12.252 20.412Z" fill="black"/>
<path d="M10.8 22.5V22.65H10.95V22.5H10.8ZM10.8 18.246H10.95V18.096H10.8V18.246ZM10.41 18.246V18.096H10.284L10.2623 18.2201L10.41 18.246ZM9.18604 19.044V18.894H9.03604V19.044H9.18604ZM9.18604 19.452H9.03604V19.602H9.18604V19.452ZM10.29 19.452H10.44V19.302H10.29V19.452ZM10.29 22.5H10.14V22.65H10.29V22.5ZM10.95 22.5V18.246H10.65V22.5H10.95ZM10.8 18.096H10.41V18.396H10.8V18.096ZM10.2623 18.2201C10.2372 18.3633 10.1923 18.4723 10.1329 18.5535L10.3751 18.7305C10.4678 18.6037 10.5268 18.4488 10.5578 18.2719L10.2623 18.2201ZM10.1329 18.5535C10.0696 18.6402 9.99325 18.7072 9.90321 18.7563L10.0469 19.0197C10.1768 18.9488 10.2865 18.8518 10.3751 18.7305L10.1329 18.5535ZM9.90321 18.7563C9.80953 18.8074 9.70297 18.8434 9.58208 18.8629L9.62999 19.1591C9.7811 19.1346 9.92054 19.0886 10.0469 19.0197L9.90321 18.7563ZM9.58208 18.8629C9.45435 18.8836 9.32237 18.894 9.18604 18.894V19.194C9.3377 19.194 9.48572 19.1824 9.62999 19.1591L9.58208 18.8629ZM9.03604 19.044V19.452H9.33604V19.044H9.03604ZM9.18604 19.602H10.29V19.302H9.18604V19.602ZM10.14 19.452V22.5H10.44V19.452H10.14ZM10.29 22.65H10.8V22.35H10.29V22.65ZM12.942 20.406C12.942 20.3029 12.943 20.1887 12.945 20.0634L12.6451 20.0586C12.643 20.1853 12.642 20.3011 12.642 20.406H12.942ZM12.945 20.0634C12.9469 19.9437 12.9564 19.824 12.9735 19.7042L12.6765 19.6618C12.6577 19.794 12.6472 19.9263 12.6451 20.0586L12.945 20.0634ZM12.9735 19.7042C12.9906 19.5847 13.0152 19.4683 13.0474 19.3549L12.7587 19.2731C12.7228 19.3997 12.6955 19.5293 12.6765 19.6618L12.9735 19.7042ZM13.0474 19.3549C13.077 19.2501 13.1197 19.1617 13.174 19.0877L12.9321 18.9103C12.8543 19.0163 12.797 19.1379 12.7587 19.2731L13.0474 19.3549ZM13.174 19.0877C13.227 19.0155 13.2935 18.9567 13.3753 18.9109L13.2287 18.6491C13.1105 18.7153 13.0111 18.8025 12.9321 18.9103L13.174 19.0877ZM13.3753 18.9109C13.4479 18.8702 13.5432 18.846 13.668 18.846V18.546C13.5048 18.546 13.3562 18.5778 13.2287 18.6491L13.3753 18.9109ZM13.668 18.846C13.7928 18.846 13.8882 18.8702 13.9607 18.9109L14.1073 18.6491C13.9799 18.5778 13.8312 18.546 13.668 18.546V18.846ZM13.9607 18.9109C14.0425 18.9567 14.1091 19.0155 14.1621 19.0877L14.404 18.9103C14.325 18.8025 14.2255 18.7153 14.1073 18.6491L13.9607 18.9109ZM14.1621 19.0877C14.2163 19.1617 14.259 19.2501 14.2887 19.3549L14.5774 19.2731C14.539 19.1379 14.4817 19.0163 14.404 18.9103L14.1621 19.0877ZM14.2887 19.3549C14.3208 19.4683 14.3455 19.5847 14.3625 19.7042L14.6595 19.6618C14.6406 19.5293 14.6132 19.3997 14.5774 19.2731L14.2887 19.3549ZM14.3625 19.7042C14.3797 19.824 14.3892 19.9437 14.3911 20.0634L14.691 20.0586C14.6889 19.9263 14.6784 19.794 14.6595 19.6618L14.3625 19.7042ZM14.3911 20.0634C14.393 20.1887 14.394 20.3029 14.394 20.406H14.694C14.694 20.3011 14.693 20.1853 14.691 20.0586L14.3911 20.0634ZM14.394 20.406C14.394 20.563 14.3891 20.7394 14.3792 20.9354L14.6788 20.9506C14.6889 20.7506 14.694 20.569 14.694 20.406H14.394ZM14.3792 20.9354C14.3698 21.122 14.3397 21.2955 14.2898 21.4565L14.5763 21.5455C14.6343 21.3585 14.6683 21.16 14.6788 20.9506L14.3792 20.9354ZM14.2898 21.4565C14.2424 21.609 14.1675 21.7344 14.066 21.8359L14.2781 22.0481C14.4166 21.9096 14.5156 21.741 14.5763 21.5455L14.2898 21.4565ZM14.066 21.8359C13.9812 21.9207 13.8556 21.972 13.668 21.972V22.272C13.9124 22.272 14.1228 22.2033 14.2781 22.0481L14.066 21.8359ZM13.668 21.972C13.4804 21.972 13.3548 21.9207 13.2701 21.8359L13.058 22.0481C13.2132 22.2033 13.4236 22.272 13.668 22.272V21.972ZM13.2701 21.8359C13.1686 21.7344 13.0936 21.609 13.0463 21.4565L12.7598 21.5455C12.8204 21.741 12.9195 21.9096 13.058 22.0481L13.2701 21.8359ZM13.0463 21.4565C12.9963 21.2955 12.9663 21.122 12.9568 20.9354L12.6572 20.9506C12.6678 21.16 12.7017 21.3585 12.7598 21.5455L13.0463 21.4565ZM12.9568 20.9354C12.9469 20.7394 12.942 20.563 12.942 20.406H12.642C12.642 20.569 12.6471 20.7506 12.6572 20.9506L12.9568 20.9354ZM12.102 20.412C12.102 20.5706 12.1061 20.7349 12.1142 20.9051L12.4139 20.8909C12.406 20.7251 12.402 20.5654 12.402 20.412H12.102ZM12.1142 20.9051C12.1226 21.0804 12.1434 21.2518 12.1769 21.4194L12.4711 21.3606C12.4406 21.2082 12.4215 21.0516 12.4139 20.8909L12.1142 20.9051ZM12.1769 21.4194C12.2108 21.5888 12.2597 21.7495 12.3239 21.9014L12.6002 21.7846C12.5444 21.6525 12.5013 21.5112 12.4711 21.3606L12.1769 21.4194ZM12.3239 21.9014C12.3908 22.0598 12.4829 22.2004 12.6 22.322L12.8161 22.114C12.7252 22.0196 12.6533 21.9102 12.6002 21.7846L12.3239 21.9014ZM12.6 22.322C12.7208 22.4475 12.8708 22.5438 13.0462 22.6126L13.1558 22.3334C13.0153 22.2782 12.9032 22.2045 12.8161 22.114L12.6 22.322ZM13.0462 22.6126C13.226 22.6832 13.4346 22.716 13.668 22.716V22.416C13.4615 22.416 13.292 22.3868 13.1558 22.3334L13.0462 22.6126ZM13.668 22.716C13.905 22.716 14.115 22.6833 14.2934 22.6124L14.1826 22.3336C14.0491 22.3867 13.879 22.416 13.668 22.416V22.716ZM14.2934 22.6124C14.4669 22.5434 14.6156 22.4472 14.7361 22.322L14.52 22.114C14.4325 22.2048 14.3212 22.2786 14.1826 22.3336L14.2934 22.6124ZM14.7361 22.322C14.8532 22.2004 14.9453 22.0598 15.0122 21.9014L14.7359 21.7846C14.6828 21.9102 14.6109 22.0196 14.52 22.114L14.7361 22.322ZM15.0122 21.9014C15.0764 21.7495 15.1253 21.5888 15.1591 21.4194L14.8649 21.3606C14.8348 21.5112 14.7917 21.6525 14.7359 21.7846L15.0122 21.9014ZM15.1591 21.4194C15.1926 21.2518 15.2135 21.0804 15.2219 20.9051L14.9222 20.8909C14.9146 21.0516 14.8954 21.2082 14.8649 21.3606L15.1591 21.4194ZM15.2219 20.9051C15.23 20.7349 15.234 20.5706 15.234 20.412H14.934C14.934 20.5654 14.9301 20.7251 14.9222 20.8909L15.2219 20.9051ZM15.234 20.412C15.234 20.2534 15.23 20.0891 15.2219 19.9189L14.9222 19.9331C14.9301 20.0989 14.934 20.2586 14.934 20.412H15.234ZM15.2219 19.9189C15.2135 19.7436 15.1926 19.5722 15.1591 19.4046L14.8649 19.4634C14.8954 19.6158 14.9146 19.7724 14.9222 19.9331L15.2219 19.9189ZM15.1591 19.4046C15.1253 19.2353 15.0765 19.0738 15.0125 18.9203L14.7356 19.0357C14.7916 19.1702 14.8348 19.3127 14.8649 19.4634L15.1591 19.4046ZM15.0125 18.9203C14.9456 18.7598 14.8535 18.6179 14.7361 18.496L14.52 18.704C14.6105 18.7981 14.6824 18.9082 14.7356 19.0357L15.0125 18.9203ZM14.7361 18.496C14.6156 18.3709 14.4662 18.2738 14.2913 18.203L14.1787 18.481C14.3199 18.5382 14.4325 18.6132 14.52 18.704L14.7361 18.496ZM14.2913 18.203C14.1111 18.13 13.902 18.096 13.668 18.096V18.396C13.8741 18.396 14.043 18.426 14.1787 18.481L14.2913 18.203ZM13.668 18.096C13.4341 18.096 13.225 18.13 13.0447 18.203L13.1574 18.481C13.2931 18.426 13.462 18.396 13.668 18.396V18.096ZM13.0447 18.203C12.8699 18.2738 12.7205 18.3708 12.6 18.496L12.8161 18.704C12.9036 18.6132 13.0162 18.5382 13.1574 18.481L13.0447 18.203ZM12.6 18.496C12.4825 18.6179 12.3904 18.7598 12.3236 18.9203L12.6005 19.0357C12.6536 18.9082 12.7255 18.7981 12.8161 18.704L12.6 18.496ZM12.3236 18.9203C12.2596 19.0738 12.2108 19.2353 12.1769 19.4046L12.4711 19.4634C12.5013 19.3127 12.5445 19.1702 12.6005 19.0357L12.3236 18.9203ZM12.1769 19.4046C12.1434 19.5722 12.1226 19.7436 12.1142 19.9189L12.4139 19.9331C12.4215 19.7724 12.4406 19.6158 12.4711 19.4634L12.1769 19.4046ZM12.1142 19.9189C12.1061 20.0891 12.102 20.2534 12.102 20.412H12.402C12.402 20.2586 12.406 20.0989 12.4139 19.9331L12.1142 19.9189Z" fill="black"/>
<path fill-rule="evenodd" clip-rule="evenodd" d="M9.13601 30.974H8.62601C8.65801 31.342 8.79201 31.616 9.02801 31.796C9.26401 31.976 9.56001 32.066 9.91601 32.066C10.432 32.066 10.807 31.869 11.041 31.475C11.275 31.081 11.392 30.516 11.392 29.78C11.392 29.376 11.353 29.043 11.275 28.781C11.197 28.519 11.092 28.312 10.96 28.16C10.828 28.008 10.674 27.901 10.498 27.839C10.322 27.777 10.134 27.746 9.93401 27.746C9.73001 27.746 9.54201 27.78 9.37001 27.848C9.19801 27.916 9.05001 28.011 8.92601 28.133C8.80201 28.255 8.70601 28.401 8.63801 28.571C8.57001 28.741 8.53601 28.928 8.53601 29.132C8.53601 29.34 8.56501 29.532 8.62301 29.708C8.68101 29.884 8.76701 30.034 8.88101 30.158C8.99501 30.282 9.13601 30.379 9.30401 30.449C9.47201 30.519 9.66401 30.554 9.88001 30.554C10.088 30.554 10.28 30.501 10.456 30.395C10.632 30.289 10.768 30.146 10.864 29.966L10.876 29.978C10.86 30.534 10.774 30.947 10.618 31.217C10.462 31.487 10.228 31.622 9.91601 31.622C9.71201 31.622 9.53601 31.566 9.38801 31.454C9.24001 31.342 9.15601 31.182 9.13601 30.974ZM10.786 29.168C10.786 29.292 10.766 29.411 10.726 29.525C10.686 29.639 10.628 29.739 10.552 29.825C10.476 29.911 10.384 29.979 10.276 30.029C10.168 30.079 10.048 30.104 9.91601 30.104C9.79201 30.104 9.67901 30.079 9.57701 30.029C9.47501 29.979 9.38701 29.912 9.31301 29.828C9.23901 29.744 9.18101 29.648 9.13901 29.54C9.09701 29.432 9.07601 29.32 9.07601 29.204C9.07601 29.072 9.09101 28.946 9.12101 28.826C9.15101 28.706 9.19901 28.599 9.26501 28.505C9.33101 28.411 9.41701 28.336 9.52301 28.28C9.62901 28.224 9.75801 28.196 9.91001 28.196C10.054 28.196 10.18 28.222 10.288 28.274C10.396 28.326 10.487 28.397 10.561 28.487C10.635 28.577 10.691 28.68 10.729 28.796C10.767 28.912 10.786 29.036 10.786 29.168Z" fill="black"/>
<path d="M8.62601 30.974V30.824H8.4624L8.47657 30.987L8.62601 30.974ZM10.864 29.966L10.9701 29.8599L10.8269 29.7168L10.7317 29.8954L10.864 29.966ZM10.876 29.978L11.0259 29.9823L11.0278 29.9177L10.9821 29.8719L10.876 29.978ZM9.13601 30.824H8.62601V31.124H9.13601V30.824ZM8.47657 30.987C8.51127 31.386 8.65955 31.7036 8.93704 31.9153L9.11898 31.6767C8.92447 31.5284 8.80475 31.298 8.77545 30.961L8.47657 30.987ZM8.93704 31.9153C9.20409 32.1189 9.53389 32.216 9.91601 32.216V31.916C9.58612 31.916 9.32394 31.8331 9.11898 31.6767L8.93704 31.9153ZM9.91601 32.216C10.477 32.216 10.9051 31.9976 11.17 31.5516L10.912 31.3984C10.7089 31.7404 10.3871 31.916 9.91601 31.916V32.216ZM11.17 31.5516C11.4237 31.1244 11.542 30.5282 11.542 29.78H11.242C11.242 30.5038 11.1263 31.0376 10.912 31.3984L11.17 31.5516ZM11.542 29.78C11.542 29.3677 11.5024 29.019 11.4188 28.7382L11.1312 28.8238C11.2036 29.067 11.242 29.3843 11.242 29.78H11.542ZM11.4188 28.7382C11.3367 28.4626 11.2233 28.2345 11.0733 28.0616L10.8468 28.2584C10.9607 28.3895 11.0573 28.5754 11.1312 28.8238L11.4188 28.7382ZM11.0733 28.0616C10.9256 27.8916 10.7503 27.7688 10.5478 27.6975L10.4482 27.9805C10.5977 28.0332 10.7304 28.1244 10.8468 28.2584L11.0733 28.0616ZM10.5478 27.6975C10.3547 27.6295 10.1498 27.596 9.93401 27.596V27.896C10.1183 27.896 10.2893 27.9245 10.4482 27.9805L10.5478 27.6975ZM9.93401 27.596C9.71308 27.596 9.50614 27.6329 9.31486 27.7085L9.42516 27.9875C9.57788 27.9271 9.74694 27.896 9.93401 27.896V27.596ZM9.31486 27.7085C9.12536 27.7834 8.96004 27.8891 8.82081 28.0261L9.03121 28.2399C9.13999 28.1329 9.27066 28.0486 9.42516 27.9875L9.31486 27.7085ZM8.82081 28.0261C8.68127 28.1634 8.57402 28.3271 8.49874 28.5153L8.77728 28.6267C8.838 28.4749 8.92275 28.3466 9.03121 28.2399L8.82081 28.0261ZM8.49874 28.5153C8.42289 28.7049 8.38601 28.9111 8.38601 29.132H8.68601C8.68601 28.9449 8.71713 28.7771 8.77728 28.6267L8.49874 28.5153ZM8.38601 29.132C8.38601 29.354 8.41698 29.5621 8.48055 29.755L8.76547 29.6611C8.71304 29.5019 8.68601 29.326 8.68601 29.132H8.38601ZM8.48055 29.755C8.54455 29.9492 8.64076 30.1183 8.77059 30.2595L8.99144 30.0565C8.89327 29.9497 8.81747 29.8188 8.76547 29.6611L8.48055 29.755ZM8.77059 30.2595C8.90044 30.4008 9.05991 30.5098 9.24632 30.5875L9.3617 30.3105C9.21211 30.2482 9.08958 30.1632 8.99144 30.0565L8.77059 30.2595ZM9.24632 30.5875C9.43568 30.6664 9.64784 30.704 9.88001 30.704V30.404C9.68018 30.404 9.50834 30.3716 9.3617 30.3105L9.24632 30.5875ZM9.88001 30.704C10.1149 30.704 10.3337 30.6438 10.5334 30.5235L10.3786 30.2665C10.2263 30.3583 10.0611 30.404 9.88001 30.404V30.704ZM10.5334 30.5235C10.7324 30.4036 10.8875 30.2407 10.9964 30.0366L10.7317 29.8954C10.6485 30.0513 10.5316 30.1744 10.3786 30.2665L10.5334 30.5235ZM10.7579 30.0721L10.7699 30.0841L10.9821 29.8719L10.9701 29.8599L10.7579 30.0721ZM10.7261 29.9737C10.7103 30.5215 10.6254 30.9044 10.4881 31.142L10.7479 31.292C10.9226 30.9896 11.0097 30.5465 11.0259 29.9823L10.7261 29.9737ZM10.4881 31.142C10.3589 31.3655 10.1745 31.472 9.91601 31.472V31.772C10.2815 31.772 10.5651 31.6085 10.7479 31.292L10.4881 31.142ZM9.91601 31.472C9.74126 31.472 9.59787 31.4247 9.47853 31.3344L9.29749 31.5736C9.47416 31.7073 9.68276 31.772 9.91601 31.772V31.472ZM9.47853 31.3344C9.36837 31.251 9.30187 31.1317 9.28532 30.9596L8.9867 30.9884C9.01016 31.2323 9.11165 31.433 9.29749 31.5736L9.47853 31.3344ZM10.636 29.168C10.636 29.2755 10.6187 29.3777 10.5845 29.4753L10.8676 29.5747C10.9133 29.4443 10.936 29.3085 10.936 29.168H10.636ZM10.5845 29.4753C10.5505 29.572 10.5021 29.6549 10.4396 29.7257L10.6644 29.9243C10.7539 29.8231 10.8215 29.706 10.8676 29.5747L10.5845 29.4753ZM10.4396 29.7257C10.3779 29.7955 10.3029 29.8513 10.213 29.8929L10.339 30.1651C10.4651 30.1067 10.5742 30.0265 10.6644 29.9243L10.4396 29.7257ZM10.213 29.8929C10.1268 29.9328 10.0286 29.954 9.91601 29.954V30.254C10.0674 30.254 10.2092 30.2252 10.339 30.1651L10.213 29.8929ZM9.91601 29.954C9.81277 29.954 9.72265 29.9333 9.64303 29.8943L9.51099 30.1637C9.63537 30.2247 9.77125 30.254 9.91601 30.254V29.954ZM9.64303 29.8943C9.55846 29.8529 9.48634 29.7978 9.42556 29.7288L9.20046 29.9272C9.28768 30.0262 9.39156 30.1051 9.51099 30.1637L9.64303 29.8943ZM9.42556 29.7288C9.36361 29.6585 9.31466 29.5778 9.27881 29.4856L8.99921 29.5944C9.04737 29.7182 9.11441 29.8295 9.20046 29.9272L9.42556 29.7288ZM9.27881 29.4856C9.24356 29.395 9.22601 29.3014 9.22601 29.204H8.92601C8.92601 29.3386 8.95046 29.469 8.99921 29.5944L9.27881 29.4856ZM9.22601 29.204C9.22601 29.0834 9.2397 28.9697 9.26653 28.8624L8.97549 28.7896C8.94232 28.9223 8.92601 29.0606 8.92601 29.204H9.22601ZM9.26653 28.8624C9.29241 28.7589 9.33314 28.669 9.38777 28.5912L9.14225 28.4188C9.06488 28.529 9.00961 28.6531 8.97549 28.7896L9.26653 28.8624ZM9.38777 28.5912C9.43953 28.5175 9.50712 28.458 9.59308 28.4126L9.45294 28.1474C9.3269 28.214 9.22249 28.3045 9.14225 28.4188L9.38777 28.5912ZM9.59308 28.4126C9.67247 28.3707 9.77604 28.346 9.91001 28.346V28.046C9.73998 28.046 9.58556 28.0773 9.45294 28.1474L9.59308 28.4126ZM9.91001 28.346C10.036 28.346 10.1389 28.3687 10.2229 28.4092L10.3531 28.1389C10.2211 28.0753 10.0721 28.046 9.91001 28.046V28.346ZM10.2229 28.4092C10.3119 28.452 10.3854 28.5096 10.4451 28.5823L10.6769 28.3917C10.5886 28.2844 10.4801 28.2 10.3531 28.1389L10.2229 28.4092ZM10.4451 28.5823C10.5068 28.6572 10.554 28.7435 10.5865 28.8427L10.8716 28.7493C10.828 28.6165 10.7633 28.4968 10.6769 28.3917L10.4451 28.5823ZM10.5865 28.8427C10.6191 28.9424 10.636 29.0506 10.636 29.168H10.936C10.936 29.0214 10.9149 28.8816 10.8716 28.7493L10.5865 28.8427Z" fill="black"/>
<path fill-rule="evenodd" clip-rule="evenodd" d="M11.262 39.35C11.262 39.242 11.282 39.148 11.322 39.068C11.362 38.988 11.415 38.92 11.481 38.864C11.547 38.808 11.626 38.766 11.718 38.738C11.81 38.71 11.906 38.696 12.006 38.696C12.214 38.696 12.385 38.751 12.519 38.861C12.653 38.971 12.72 39.134 12.72 39.35C12.72 39.566 12.654 39.734 12.522 39.854C12.39 39.974 12.222 40.034 12.018 40.034C11.914 40.034 11.816 40.02 11.724 39.992C11.632 39.964 11.552 39.922 11.484 39.866C11.416 39.81 11.362 39.739 11.322 39.653C11.282 39.567 11.262 39.466 11.262 39.35ZM10.722 39.332C10.722 39.524 10.776 39.701 10.884 39.863C10.992 40.025 11.136 40.142 11.316 40.214C11.076 40.298 10.892 40.433 10.764 40.619C10.636 40.805 10.572 41.024 10.572 41.276C10.572 41.492 10.609 41.681 10.683 41.843C10.757 42.005 10.859 42.14 10.989 42.248C11.119 42.356 11.272 42.436 11.448 42.488C11.624 42.54 11.814 42.566 12.018 42.566C12.214 42.566 12.398 42.538 12.57 42.482C12.742 42.426 12.891 42.343 13.017 42.233C13.143 42.123 13.243 41.988 13.317 41.828C13.391 41.668 13.428 41.484 13.428 41.276C13.428 41.012 13.366 40.789 13.242 40.607C13.118 40.425 12.928 40.294 12.672 40.214C12.852 40.134 12.995 40.015 13.101 39.857C13.207 39.699 13.26 39.524 13.26 39.332C13.26 39.196 13.236 39.063 13.188 38.933C13.14 38.803 13.065 38.687 12.963 38.585C12.861 38.483 12.728 38.401 12.564 38.339C12.4 38.277 12.202 38.246 11.97 38.246C11.806 38.246 11.649 38.27 11.499 38.318C11.349 38.366 11.216 38.436 11.1 38.528C10.984 38.62 10.892 38.733 10.824 38.867C10.756 39.001 10.722 39.156 10.722 39.332ZM11.112 41.3C11.112 41.176 11.135 41.064 11.181 40.964C11.227 40.864 11.291 40.778 11.373 40.706C11.455 40.634 11.551 40.579 11.661 40.541C11.771 40.503 11.888 40.484 12.012 40.484C12.132 40.484 12.245 40.505 12.351 40.547C12.457 40.589 12.55 40.646 12.63 40.718C12.71 40.79 12.773 40.875 12.819 40.973C12.865 41.071 12.888 41.178 12.888 41.294C12.888 41.414 12.867 41.524 12.825 41.624C12.783 41.724 12.723 41.811 12.645 41.885C12.567 41.959 12.475 42.017 12.369 42.059C12.263 42.101 12.146 42.122 12.018 42.122C11.754 42.122 11.537 42.049 11.367 41.903C11.197 41.757 11.112 41.556 11.112 41.3Z" fill="black"/>
<path d="M11.316 40.214L11.3656 40.3556L11.7433 40.2234L11.3717 40.0747L11.316 40.214ZM12.672 40.214L12.6111 40.0769L12.2476 40.2385L12.6273 40.3572L12.672 40.214ZM11.412 39.35C11.412 39.2605 11.4285 39.1904 11.4562 39.1351L11.1879 39.0009C11.1355 39.1056 11.112 39.2235 11.112 39.35H11.412ZM11.4562 39.1351C11.4874 39.0726 11.528 39.0208 11.5781 38.9784L11.384 38.7496C11.302 38.8192 11.2366 38.9034 11.1879 39.0009L11.4562 39.1351ZM11.5781 38.9784C11.6268 38.937 11.6871 38.9042 11.7617 38.8815L11.6743 38.5945C11.5649 38.6278 11.4672 38.679 11.384 38.7496L11.5781 38.9784ZM11.7617 38.8815C11.839 38.858 11.9202 38.846 12.006 38.846V38.546C11.8918 38.546 11.7811 38.562 11.6743 38.5945L11.7617 38.8815ZM12.006 38.846C12.1865 38.846 12.3218 38.8931 12.4238 38.9769L12.6142 38.7451C12.4483 38.6089 12.2415 38.546 12.006 38.546V38.846ZM12.4238 38.9769C12.5148 39.0516 12.57 39.1668 12.57 39.35H12.87C12.87 39.1012 12.7913 38.8904 12.6142 38.7451L12.4238 38.9769ZM12.57 39.35C12.57 39.5334 12.5154 39.6573 12.4211 39.743L12.6229 39.965C12.7927 39.8107 12.87 39.5986 12.87 39.35H12.57ZM12.4211 39.743C12.3207 39.8343 12.1904 39.884 12.018 39.884V40.184C12.2536 40.184 12.4593 40.1137 12.6229 39.965L12.4211 39.743ZM12.018 39.884C11.9276 39.884 11.8444 39.8719 11.7677 39.8485L11.6803 40.1355C11.7876 40.1681 11.9004 40.184 12.018 40.184V39.884ZM11.7677 39.8485C11.6928 39.8257 11.6308 39.7926 11.5794 39.7502L11.3887 39.9818C11.4732 40.0514 11.5712 40.1023 11.6803 40.1355L11.7677 39.8485ZM11.5794 39.7502C11.53 39.7095 11.4893 39.657 11.458 39.5897L11.186 39.7163C11.2347 39.821 11.3021 39.9105 11.3887 39.9818L11.5794 39.7502ZM11.458 39.5897C11.4291 39.5275 11.412 39.4489 11.412 39.35H11.112C11.112 39.4831 11.135 39.6065 11.186 39.7163L11.458 39.5897ZM10.572 39.332C10.572 39.5541 10.635 39.7599 10.7592 39.9462L11.0088 39.7798C10.917 39.6421 10.872 39.4939 10.872 39.332H10.572ZM10.7592 39.9462C10.884 40.1333 11.052 40.27 11.2603 40.3533L11.3717 40.0747C11.22 40.0141 11.1001 39.9167 11.0088 39.7798L10.7592 39.9462ZM11.2665 40.0724C11.0004 40.1656 10.7887 40.3185 10.6405 40.534L10.8876 40.704C10.9953 40.5475 11.1517 40.4305 11.3656 40.3556L11.2665 40.0724ZM10.6405 40.534C10.4933 40.7478 10.422 40.9973 10.422 41.276H10.722C10.722 41.0507 10.7788 40.8622 10.8876 40.704L10.6405 40.534ZM10.422 41.276C10.422 41.509 10.462 41.7201 10.5466 41.9053L10.8195 41.7807C10.7561 41.6419 10.722 41.475 10.722 41.276H10.422ZM10.5466 41.9053C10.6294 42.0867 10.7449 42.2402 10.8932 42.3634L11.0849 42.1326C10.9732 42.0398 10.8846 41.9233 10.8195 41.7807L10.5466 41.9053ZM10.8932 42.3634C11.0401 42.4855 11.2117 42.5746 11.4055 42.6319L11.4905 42.3441C11.3324 42.2974 11.1979 42.2265 11.0849 42.1326L10.8932 42.3634ZM11.4055 42.6319C11.5968 42.6884 11.8012 42.716 12.018 42.716V42.416C11.8268 42.416 11.6513 42.3916 11.4905 42.3441L11.4055 42.6319ZM12.018 42.716C12.2285 42.716 12.4283 42.6859 12.6165 42.6246L12.5236 42.3394C12.3678 42.3901 12.1996 42.416 12.018 42.416V42.716ZM12.6165 42.6246C12.8061 42.5629 12.9732 42.4703 13.1157 42.346L12.9184 42.12C12.8088 42.2157 12.6779 42.2891 12.5236 42.3394L12.6165 42.6246ZM13.1157 42.346C13.2584 42.2214 13.3708 42.069 13.4532 41.891L13.1809 41.765C13.1152 41.907 13.0276 42.0246 12.9184 42.12L13.1157 42.346ZM13.4532 41.891C13.5378 41.708 13.578 41.5019 13.578 41.276H13.278C13.278 41.4661 13.2443 41.628 13.1809 41.765L13.4532 41.891ZM13.578 41.276C13.578 40.988 13.5101 40.734 13.366 40.5225L13.1181 40.6915C13.222 40.844 13.278 41.036 13.278 41.276H13.578ZM13.366 40.5225C13.2191 40.3069 12.9978 40.1587 12.7168 40.0708L12.6273 40.3572C12.8583 40.4294 13.017 40.5431 13.1181 40.6915L13.366 40.5225ZM12.7329 40.3511C12.9378 40.26 13.1033 40.1229 13.2256 39.9406L12.9765 39.7734C12.8868 39.9071 12.7662 40.008 12.6111 40.0769L12.7329 40.3511ZM13.2256 39.9406C13.3483 39.7576 13.41 39.5535 13.41 39.332H13.11C13.11 39.4945 13.0657 39.6404 12.9765 39.7734L13.2256 39.9406ZM13.41 39.332C13.41 39.1779 13.3828 39.0274 13.3287 38.881L13.0473 38.985C13.0893 39.0986 13.11 39.2141 13.11 39.332H13.41ZM13.3287 38.881C13.2729 38.7299 13.1858 38.5956 13.0691 38.4789L12.857 38.6911C12.9443 38.7784 13.0071 38.8761 13.0473 38.985L13.3287 38.881ZM13.0691 38.4789C12.9492 38.359 12.7968 38.2666 12.6171 38.1987L12.511 38.4793C12.6593 38.5354 12.7729 38.607 12.857 38.6911L13.0691 38.4789ZM12.6171 38.1987C12.4316 38.1286 12.2146 38.096 11.97 38.096V38.396C12.1894 38.396 12.3684 38.4254 12.511 38.4793L12.6171 38.1987ZM11.97 38.096C11.7912 38.096 11.6187 38.1222 11.4533 38.1751L11.5447 38.4609C11.6794 38.4178 11.8209 38.396 11.97 38.396V38.096ZM11.4533 38.1751C11.2872 38.2283 11.1379 38.3065 11.0068 38.4105L11.1932 38.6455C11.2942 38.5655 11.4109 38.5037 11.5447 38.4609L11.4533 38.1751ZM11.0068 38.4105C10.8736 38.5161 10.7679 38.6461 10.6903 38.7991L10.9578 38.9349C11.0162 38.8199 11.0944 38.7239 11.1932 38.6455L11.0068 38.4105ZM10.6903 38.7991C10.6099 38.9575 10.572 39.1364 10.572 39.332H10.872C10.872 39.1756 10.9021 39.0445 10.9578 38.9349L10.6903 38.7991ZM11.262 41.3C11.262 41.1949 11.2814 41.1047 11.3173 41.0267L11.0447 40.9013C10.9886 41.0233 10.962 41.1571 10.962 41.3H11.262ZM11.3173 41.0267C11.3546 40.9456 11.4059 40.8767 11.472 40.8187L11.2741 40.5933C11.1761 40.6793 11.0995 40.7824 11.0447 40.9013L11.3173 41.0267ZM11.472 40.8187C11.5384 40.7604 11.6172 40.7149 11.71 40.6828L11.612 40.3992C11.4849 40.4431 11.3716 40.5076 11.2741 40.5933L11.472 40.8187ZM11.71 40.6828C11.8032 40.6506 11.9036 40.634 12.012 40.634V40.334C11.8724 40.334 11.7388 40.3554 11.612 40.3992L11.71 40.6828ZM12.012 40.634C12.1141 40.634 12.2083 40.6518 12.2958 40.6865L12.4063 40.4075C12.2818 40.3582 12.1499 40.334 12.012 40.334V40.634ZM12.2958 40.6865C12.3862 40.7223 12.4637 40.7701 12.5297 40.8295L12.7304 40.6065C12.6363 40.5219 12.5279 40.4557 12.4063 40.4075L12.2958 40.6865ZM12.5297 40.8295C12.5947 40.888 12.6457 40.9568 12.6832 41.0367L12.9548 40.9093C12.9004 40.7932 12.8253 40.692 12.7304 40.6065L12.5297 40.8295ZM12.6832 41.0367C12.7192 41.1134 12.738 41.1984 12.738 41.294H13.038C13.038 41.1576 13.0108 41.0286 12.9548 40.9093L12.6832 41.0367ZM12.738 41.294C12.738 41.3962 12.7202 41.4862 12.6867 41.5659L12.9633 41.6821C13.0138 41.5618 13.038 41.4318 13.038 41.294H12.738ZM12.6867 41.5659C12.6527 41.6469 12.6046 41.7166 12.5418 41.7762L12.7483 41.9938C12.8415 41.9054 12.9133 41.8011 12.9633 41.6821L12.6867 41.5659ZM12.5418 41.7762C12.4785 41.8362 12.4031 41.8842 12.3138 41.9195L12.4243 42.1985C12.547 42.1498 12.6555 42.0818 12.7483 41.9938L12.5418 41.7762ZM12.3138 41.9195C12.2274 41.9538 12.1294 41.972 12.018 41.972V42.272C12.1626 42.272 12.2987 42.2482 12.4243 42.1985L12.3138 41.9195ZM12.018 41.972C11.7832 41.972 11.6029 41.9078 11.4648 41.7892L11.2693 42.0168C11.4712 42.1902 11.7249 42.272 12.018 42.272V41.972ZM11.4648 41.7892C11.3329 41.6759 11.262 41.5192 11.262 41.3H10.962C10.962 41.5928 11.0612 41.8381 11.2693 42.0168L11.4648 41.7892Z" fill="black"/>
<path fill-rule="evenodd" clip-rule="evenodd" d="M20.886 45.756V45.318H18.132V45.798H20.364C20.14 46.034 19.931 46.292 19.737 46.572C19.543 46.852 19.372 47.149 19.224 47.463C19.076 47.777 18.955 48.105 18.861 48.447C18.767 48.789 18.708 49.14 18.684 49.5H19.254C19.274 49.168 19.33 48.826 19.422 48.474C19.514 48.122 19.633 47.78 19.779 47.448C19.925 47.116 20.092 46.804 20.28 46.512C20.468 46.22 20.67 45.968 20.886 45.756Z" fill="black" stroke="black" stroke-width="0.3"/>
<path fill-rule="evenodd" clip-rule="evenodd" d="M30.8161 49.332H31.3261C31.2941 48.98 31.1741 48.711 30.9661 48.525C30.7581 48.339 30.4781 48.246 30.1261 48.246C29.8221 48.246 29.5701 48.31 29.3701 48.438C29.1701 48.566 29.0101 48.736 28.8901 48.948C28.7701 49.16 28.6851 49.403 28.6351 49.677C28.5851 49.951 28.5601 50.234 28.5601 50.526C28.5601 50.75 28.5771 50.982 28.6111 51.222C28.6451 51.462 28.7141 51.682 28.8181 51.882C28.9221 52.082 29.0701 52.246 29.2621 52.374C29.4541 52.502 29.7081 52.566 30.0241 52.566C30.2921 52.566 30.5171 52.521 30.6991 52.431C30.8811 52.341 31.0271 52.227 31.1371 52.089C31.2471 51.951 31.3261 51.798 31.3741 51.63C31.4221 51.462 31.4461 51.3 31.4461 51.144C31.4461 50.948 31.4161 50.766 31.3561 50.598C31.2961 50.43 31.2111 50.284 31.1011 50.16C30.9911 50.036 30.8551 49.939 30.6931 49.869C30.5311 49.799 30.3481 49.764 30.1441 49.764C29.9121 49.764 29.7071 49.808 29.5291 49.896C29.3511 49.984 29.2021 50.126 29.0821 50.322L29.0701 50.31C29.0741 50.146 29.0901 49.97 29.1181 49.782C29.1461 49.594 29.1971 49.419 29.2711 49.257C29.3451 49.095 29.4481 48.961 29.5801 48.855C29.7121 48.749 29.8861 48.696 30.1021 48.696C30.3061 48.696 30.4701 48.754 30.5941 48.87C30.7181 48.986 30.7921 49.14 30.8161 49.332ZM30.0481 50.214C30.1921 50.214 30.3181 50.24 30.4261 50.292C30.5341 50.344 30.6241 50.413 30.6961 50.499C30.7681 50.585 30.8211 50.687 30.8551 50.805C30.8891 50.923 30.9061 51.048 30.9061 51.18C30.9061 51.304 30.8871 51.423 30.8491 51.537C30.8111 51.651 30.7561 51.752 30.6841 51.84C30.6121 51.928 30.5231 51.997 30.4171 52.047C30.3111 52.097 30.1881 52.122 30.0481 52.122C29.9081 52.122 29.7831 52.097 29.6731 52.047C29.5631 51.997 29.4711 51.93 29.3971 51.846C29.3231 51.762 29.2661 51.662 29.2261 51.546C29.1861 51.43 29.1661 51.306 29.1661 51.174C29.1661 51.042 29.1851 50.917 29.2231 50.799C29.2611 50.681 29.3181 50.579 29.3941 50.493C29.4701 50.407 29.5621 50.339 29.6701 50.289C29.7781 50.239 29.9041 50.214 30.0481 50.214Z" fill="black"/>
<path d="M31.3261 49.332V49.482H31.4903L31.4754 49.3184L31.3261 49.332ZM29.0821 50.322L28.976 50.4281L29.1106 50.5627L29.21 50.4003L29.0821 50.322ZM29.0701 50.31L28.9201 50.3063L28.9185 50.3706L28.964 50.4161L29.0701 50.31ZM30.8161 49.482H31.3261V49.182H30.8161V49.482ZM31.4754 49.3184C31.441 48.9391 31.3093 48.6307 31.066 48.4132L30.8661 48.6368C31.0388 48.7913 31.1472 49.0209 31.1767 49.3456L31.4754 49.3184ZM31.066 48.4132C30.8239 48.1967 30.505 48.096 30.1261 48.096V48.396C30.4512 48.396 30.6922 48.4813 30.8661 48.6368L31.066 48.4132ZM30.1261 48.096C29.8013 48.096 29.5193 48.1644 29.2892 48.3117L29.4509 48.5643C29.6209 48.4556 29.8428 48.396 30.1261 48.396V48.096ZM29.2892 48.3117C29.0681 48.4532 28.8912 48.6414 28.7595 48.8741L29.0206 49.0219C29.1289 48.8306 29.272 48.6788 29.4509 48.5643L29.2892 48.3117ZM28.7595 48.8741C28.6302 49.1026 28.5401 49.3619 28.4875 49.6501L28.7826 49.7039C28.83 49.4441 28.9099 49.2174 29.0206 49.0219L28.7595 48.8741ZM28.4875 49.6501C28.4358 49.9334 28.4101 50.2254 28.4101 50.526H28.7101C28.7101 50.2426 28.7343 49.9686 28.7826 49.7039L28.4875 49.6501ZM28.4101 50.526C28.4101 50.7576 28.4276 50.9966 28.4625 51.243L28.7596 51.201C28.7265 50.9674 28.7101 50.7424 28.7101 50.526H28.4101ZM28.4625 51.243C28.4987 51.4986 28.5726 51.735 28.685 51.9512L28.9511 51.8128C28.8555 51.629 28.7914 51.4254 28.7596 51.201L28.4625 51.243ZM28.685 51.9512C28.8009 52.1742 28.9663 52.3571 29.1789 52.4988L29.3453 52.2492C29.1738 52.1349 29.0432 51.9898 28.9511 51.8128L28.685 51.9512ZM29.1789 52.4988C29.4031 52.6483 29.6891 52.716 30.0241 52.716V52.416C29.727 52.416 29.5051 52.3557 29.3453 52.2492L29.1789 52.4988ZM30.0241 52.716C30.308 52.716 30.5574 52.6684 30.7655 52.5655L30.6326 52.2965C30.4768 52.3736 30.2761 52.416 30.0241 52.416V52.716ZM30.7655 52.5655C30.9643 52.4672 31.1287 52.3401 31.2544 52.1825L31.0198 51.9955C30.9254 52.1139 30.7978 52.2148 30.6326 52.2965L30.7655 52.5655ZM31.2544 52.1825C31.3766 52.0292 31.4648 51.8584 31.5183 51.6712L31.2298 51.5888C31.1873 51.7376 31.1176 51.8728 31.0198 51.9955L31.2544 52.1825ZM31.5183 51.6712C31.5697 51.4914 31.5961 51.3155 31.5961 51.144H31.2961C31.2961 51.2845 31.2745 51.4326 31.2298 51.5888L31.5183 51.6712ZM31.5961 51.144C31.5961 50.9325 31.5636 50.7333 31.4973 50.5476L31.2148 50.6485C31.2685 50.7987 31.2961 50.9635 31.2961 51.144H31.5961ZM31.4973 50.5476C31.4314 50.3629 31.3369 50.1999 31.2133 50.0605L30.9888 50.2595C31.0852 50.3681 31.1608 50.4971 31.2148 50.6485L31.4973 50.5476ZM31.2133 50.0605C31.0878 49.919 30.9334 49.8094 30.7526 49.7313L30.6336 50.0067C30.7767 50.0686 30.8943 50.153 30.9888 50.2595L31.2133 50.0605ZM30.7526 49.7313C30.5691 49.652 30.3654 49.614 30.1441 49.614V49.914C30.3308 49.914 30.493 49.946 30.6336 50.0067L30.7526 49.7313ZM30.1441 49.614C29.8929 49.614 29.6645 49.6617 29.4626 49.7615L29.5955 50.0305C29.7497 49.9543 29.9312 49.914 30.1441 49.914V49.614ZM29.4626 49.7615C29.2554 49.864 29.0865 50.0274 28.9541 50.2437L29.21 50.4003C29.3176 50.2246 29.4467 50.1041 29.5955 50.0305L29.4626 49.7615ZM29.1881 50.2159L29.1761 50.2039L28.964 50.4161L28.976 50.4281L29.1881 50.2159ZM29.22 50.3137C29.2238 50.1567 29.2392 49.9869 29.2664 49.8041L28.9697 49.7599C28.9409 49.9531 28.9243 50.1353 28.9201 50.3063L29.22 50.3137ZM29.2664 49.8041C29.2925 49.6291 29.3397 49.4677 29.4075 49.3193L29.1346 49.1947C29.0544 49.3703 28.9996 49.5589 28.9697 49.7599L29.2664 49.8041ZM29.4075 49.3193C29.4723 49.1775 29.5612 49.0625 29.674 48.972L29.4861 48.738C29.3349 48.8595 29.2178 49.0125 29.1346 49.1947L29.4075 49.3193ZM29.674 48.972C29.7727 48.8927 29.9106 48.846 30.1021 48.846V48.546C29.8615 48.546 29.6514 48.6053 29.4861 48.738L29.674 48.972ZM30.1021 48.846C30.2761 48.846 30.4008 48.8946 30.4916 48.9795L30.6965 48.7605C30.5393 48.6134 30.336 48.546 30.1021 48.546V48.846ZM30.4916 48.9795C30.5864 49.0683 30.6469 49.1883 30.6672 49.3506L30.9649 49.3134C30.9372 49.0917 30.8497 48.9037 30.6965 48.7605L30.4916 48.9795ZM30.0481 50.364C30.174 50.364 30.277 50.3867 30.361 50.4272L30.4911 50.1569C30.3591 50.0933 30.2101 50.064 30.0481 50.064V50.364ZM30.361 50.4272C30.4511 50.4705 30.5237 50.5268 30.581 50.5953L30.8111 50.4027C30.7245 50.2992 30.617 50.2175 30.4911 50.1569L30.361 50.4272ZM30.581 50.5953C30.6384 50.6638 30.6822 50.7467 30.7109 50.8465L30.9992 50.7635C30.96 50.6273 30.8977 50.5062 30.8111 50.4027L30.581 50.5953ZM30.7109 50.8465C30.7408 50.9501 30.7561 51.061 30.7561 51.18H31.0561C31.0561 51.035 31.0374 50.8959 30.9992 50.7635L30.7109 50.8465ZM30.7561 51.18C30.7561 51.2884 30.7395 51.3913 30.7068 51.4896L30.9914 51.5844C31.0346 51.4547 31.0561 51.3196 31.0561 51.18H30.7561ZM30.7068 51.4896C30.6742 51.5873 30.6278 51.6719 30.568 51.745L30.8002 51.935C30.8844 51.8321 30.9479 51.7148 30.9914 51.5844L30.7068 51.4896ZM30.568 51.745C30.5105 51.8152 30.4395 51.8706 30.3531 51.9113L30.4811 52.1827C30.6066 52.1235 30.7136 52.0408 30.8002 51.935L30.568 51.745ZM30.3531 51.9113C30.2706 51.9502 30.1702 51.972 30.0481 51.972V52.272C30.2059 52.272 30.3515 52.2438 30.4811 52.1827L30.3531 51.9113ZM30.0481 51.972C29.9261 51.972 29.8228 51.9503 29.7351 51.9104L29.611 52.1836C29.7433 52.2437 29.89 52.272 30.0481 52.272V51.972ZM29.7351 51.9104C29.6429 51.8685 29.5685 51.8137 29.5096 51.7468L29.2845 51.9452C29.3736 52.0463 29.4833 52.1255 29.611 52.1836L29.7351 51.9104ZM29.5096 51.7468C29.4497 51.6789 29.4021 51.5964 29.3679 51.4971L29.0843 51.5949C29.13 51.7276 29.1964 51.8451 29.2845 51.9452L29.5096 51.7468ZM29.3679 51.4971C29.3337 51.398 29.3161 51.2906 29.3161 51.174H29.0161C29.0161 51.3214 29.0384 51.462 29.0843 51.5949L29.3679 51.4971ZM29.3161 51.174C29.3161 51.0566 29.3329 50.9472 29.3658 50.845L29.0803 50.753C29.0372 50.8868 29.0161 51.0274 29.0161 51.174H29.3161ZM29.3658 50.845C29.398 50.7451 29.4452 50.6616 29.5065 50.5923L29.2817 50.3937C29.1909 50.4964 29.1241 50.6169 29.0803 50.753L29.3658 50.845ZM29.5065 50.5923C29.5682 50.5225 29.6432 50.4667 29.7331 50.4251L29.607 50.1529C29.4809 50.2113 29.3719 50.2915 29.2817 50.3937L29.5065 50.5923ZM29.7331 50.4251C29.8176 50.386 29.9213 50.364 30.0481 50.364V50.064C29.8868 50.064 29.7385 50.092 29.607 50.1529L29.7331 50.4251Z" fill="black"/>
<path fill-rule="evenodd" clip-rule="evenodd" d="M41.652 45.768V45.318H39.552L39.156 47.526L39.594 47.55C39.694 47.43 39.809 47.333 39.939 47.259C40.069 47.185 40.218 47.148 40.386 47.148C40.53 47.148 40.661 47.172 40.779 47.22C40.897 47.268 40.998 47.335 41.082 47.421C41.166 47.507 41.231 47.609 41.277 47.727C41.323 47.845 41.346 47.974 41.346 48.114C41.346 48.282 41.322 48.429 41.274 48.555C41.226 48.681 41.161 48.786 41.079 48.87C40.997 48.954 40.901 49.017 40.791 49.059C40.681 49.101 40.566 49.122 40.446 49.122C40.318 49.122 40.201 49.103 40.095 49.065C39.989 49.027 39.897 48.973 39.819 48.903C39.741 48.833 39.679 48.751 39.633 48.657C39.587 48.563 39.56 48.462 39.552 48.354H39.042C39.046 48.546 39.084 48.718 39.156 48.87C39.228 49.022 39.326 49.149 39.45 49.251C39.574 49.353 39.717 49.431 39.879 49.485C40.041 49.539 40.214 49.566 40.398 49.566C40.646 49.566 40.863 49.527 41.049 49.449C41.235 49.371 41.39 49.266 41.514 49.134C41.638 49.002 41.731 48.851 41.793 48.681C41.855 48.511 41.886 48.336 41.886 48.156C41.886 47.912 41.85 47.699 41.778 47.517C41.706 47.335 41.608 47.183 41.484 47.061C41.36 46.939 41.214 46.848 41.046 46.788C40.878 46.728 40.7 46.698 40.512 46.698C40.368 46.698 40.223 46.723 40.077 46.773C39.931 46.823 39.812 46.9 39.72 47.004L39.708 46.992L39.936 45.768H41.652Z" fill="black" stroke="black" stroke-width="0.3"/>
<path fill-rule="evenodd" clip-rule="evenodd" d="M48.366 41.054H46.938L48.354 38.972H48.366V41.054ZM48.846 41.054V38.246H48.438L46.5 41.012V41.504H48.366V42.5H48.846V41.504H49.422V41.054H48.846Z" fill="black"/>
<path d="M48.366 41.054V41.204H48.516V41.054H48.366ZM46.938 41.054L46.814 40.9696L46.6546 41.204H46.938V41.054ZM48.354 38.972V38.822H48.2746L48.23 38.8876L48.354 38.972ZM48.366 38.972H48.516V38.822H48.366V38.972ZM48.846 41.054H48.696V41.204H48.846V41.054ZM48.846 38.246H48.996V38.096H48.846V38.246ZM48.438 38.246V38.096H48.3599L48.3152 38.1599L48.438 38.246ZM46.5 41.012L46.3772 40.9259L46.35 40.9647V41.012H46.5ZM46.5 41.504H46.35V41.654H46.5V41.504ZM48.366 41.504H48.516V41.354H48.366V41.504ZM48.366 42.5H48.216V42.65H48.366V42.5ZM48.846 42.5V42.65H48.996V42.5H48.846ZM48.846 41.504V41.354H48.696V41.504H48.846ZM49.422 41.504V41.654H49.572V41.504H49.422ZM49.422 41.054H49.572V40.904H49.422V41.054ZM48.366 40.904H46.938V41.204H48.366V40.904ZM47.062 41.1384L48.478 39.0564L48.23 38.8876L46.814 40.9696L47.062 41.1384ZM48.354 39.122H48.366V38.822H48.354V39.122ZM48.216 38.972V41.054H48.516V38.972H48.216ZM48.996 41.054V38.246H48.696V41.054H48.996ZM48.846 38.096H48.438V38.396H48.846V38.096ZM48.3152 38.1599L46.3772 40.9259L46.6228 41.0981L48.5608 38.3321L48.3152 38.1599ZM46.35 41.012V41.504H46.65V41.012H46.35ZM46.5 41.654H48.366V41.354H46.5V41.654ZM48.216 41.504V42.5H48.516V41.504H48.216ZM48.366 42.65H48.846V42.35H48.366V42.65ZM48.996 42.5V41.504H48.696V42.5H48.996ZM48.846 41.654H49.422V41.354H48.846V41.654ZM49.572 41.504V41.054H49.272V41.504H49.572ZM49.422 40.904H48.846V41.204H49.422V40.904Z" fill="black"/>
<path fill-rule="evenodd" clip-rule="evenodd" d="M50.1401 29.57V30.002C50.2361 29.99 50.3381 29.984 50.4461 29.984C50.5741 29.984 50.6931 30.001 50.8031 30.035C50.9131 30.069 51.0081 30.121 51.0881 30.191C51.1681 30.261 51.2321 30.347 51.2801 30.449C51.3281 30.551 51.3521 30.668 51.3521 30.8C51.3521 30.928 51.3271 31.043 51.2771 31.145C51.2271 31.247 51.1601 31.333 51.0761 31.403C50.9921 31.473 50.8941 31.527 50.7821 31.565C50.6701 31.603 50.5521 31.622 50.4281 31.622C50.1361 31.622 49.9141 31.535 49.7621 31.361C49.6101 31.187 49.5301 30.962 49.5221 30.686H49.0121C49.0081 30.906 49.0391 31.102 49.1051 31.274C49.1711 31.446 49.2661 31.591 49.3901 31.709C49.5141 31.827 49.6641 31.916 49.8401 31.976C50.0161 32.036 50.2121 32.066 50.4281 32.066C50.6281 32.066 50.8171 32.039 50.9951 31.985C51.1731 31.931 51.3281 31.85 51.4601 31.742C51.5921 31.634 51.6971 31.499 51.7751 31.337C51.8531 31.175 51.8921 30.988 51.8921 30.776C51.8921 30.52 51.8291 30.298 51.7031 30.11C51.5771 29.922 51.3841 29.8 51.1241 29.744V29.732C51.2921 29.656 51.4321 29.544 51.5441 29.396C51.6561 29.248 51.7121 29.078 51.7121 28.886C51.7121 28.69 51.6791 28.52 51.6131 28.376C51.5471 28.232 51.4561 28.114 51.3401 28.022C51.2241 27.93 51.0871 27.861 50.9291 27.815C50.7711 27.769 50.6001 27.746 50.4161 27.746C50.2041 27.746 50.0171 27.78 49.8551 27.848C49.6931 27.916 49.5581 28.01 49.4501 28.13C49.3421 28.25 49.2591 28.394 49.2011 28.562C49.1431 28.73 49.1101 28.916 49.1021 29.12H49.6121C49.6121 28.996 49.6281 28.878 49.6601 28.766C49.6921 28.654 49.7411 28.556 49.8071 28.472C49.8731 28.388 49.9571 28.321 50.0591 28.271C50.1611 28.221 50.2801 28.196 50.4161 28.196C50.6321 28.196 50.8121 28.253 50.9561 28.367C51.1001 28.481 51.1721 28.652 51.1721 28.88C51.1721 28.992 51.1501 29.092 51.1061 29.18C51.0621 29.268 51.0031 29.341 50.9291 29.399C50.8551 29.457 50.7691 29.501 50.6711 29.531C50.5731 29.561 50.4701 29.576 50.3621 29.576H50.2541C50.2341 29.576 50.2141 29.576 50.1941 29.576C50.1781 29.576 50.1601 29.574 50.1401 29.57Z" fill="black" stroke="black" stroke-width="0.3"/>
<path fill-rule="evenodd" clip-rule="evenodd" d="M46.0961 19.752H46.6061C46.6021 19.624 46.6151 19.497 46.6451 19.371C46.6751 19.245 46.7241 19.132 46.7921 19.032C46.8601 18.932 46.9471 18.851 47.0531 18.789C47.1591 18.727 47.2861 18.696 47.4341 18.696C47.5461 18.696 47.6521 18.714 47.7521 18.75C47.8521 18.786 47.9391 18.838 48.0131 18.906C48.0871 18.974 48.1461 19.055 48.1901 19.149C48.2341 19.243 48.2561 19.348 48.2561 19.464C48.2561 19.612 48.2331 19.742 48.1871 19.854C48.1411 19.966 48.0731 20.07 47.9831 20.166C47.8931 20.262 47.7801 20.357 47.6441 20.451C47.5081 20.545 47.3501 20.648 47.1701 20.76C47.0221 20.848 46.8801 20.942 46.7441 21.042C46.6081 21.142 46.4861 21.258 46.3781 21.39C46.2701 21.522 46.1811 21.677 46.1111 21.855C46.0411 22.033 45.9961 22.248 45.9761 22.5H48.7541V22.05H46.5701C46.5941 21.918 46.6451 21.801 46.7231 21.699C46.8011 21.597 46.8951 21.502 47.0051 21.414C47.1151 21.326 47.2361 21.243 47.3681 21.165C47.5001 21.087 47.6321 21.008 47.7641 20.928C47.8961 20.844 48.0241 20.756 48.1481 20.664C48.2721 20.572 48.3821 20.469 48.4781 20.355C48.5741 20.241 48.6511 20.112 48.7091 19.968C48.7671 19.824 48.7961 19.658 48.7961 19.47C48.7961 19.27 48.7611 19.094 48.6911 18.942C48.6211 18.79 48.5261 18.663 48.4061 18.561C48.2861 18.459 48.1451 18.381 47.9831 18.327C47.8211 18.273 47.6481 18.246 47.4641 18.246C47.2401 18.246 47.0401 18.284 46.8641 18.36C46.6881 18.436 46.5411 18.541 46.4231 18.675C46.3051 18.809 46.2181 18.968 46.1621 19.152C46.1061 19.336 46.0841 19.536 46.0961 19.752Z" fill="black" stroke="black" stroke-width="0.3"/>
<path fill-rule="evenodd" clip-rule="evenodd" d="M40.468 15V10.746H40.078C40.05 10.906 39.998 11.038 39.922 11.142C39.846 11.246 39.753 11.328 39.643 11.388C39.533 11.448 39.41 11.489 39.274 11.511C39.138 11.533 38.998 11.544 38.854 11.544V11.952H39.958V15H40.468Z" fill="black" stroke="black" stroke-width="0.3"/>
<path fill-rule="evenodd" clip-rule="evenodd" d="M25.4318 15.6708C25.3712 15.4727 25.4827 15.2631 25.6808 15.2025C25.8788 15.142 26.0885 15.2534 26.149 15.4515L30.6077 30.0351C30.6682 30.2332 30.5568 30.4428 30.3587 30.5034C30.1606 30.564 29.951 30.4525 29.8905 30.2544L25.4318 15.6708Z" fill="#2B2A2A"/>
<path fill-rule="evenodd" clip-rule="evenodd" d="M29.7707 30.1337C29.69 29.9735 29.7539 29.7781 29.9138 29.6967C30.0746 29.6147 30.2714 29.6791 30.3527 29.8403L40.4537 49.8749C40.5344 50.0351 40.4705 50.2305 40.3106 50.3119C40.1498 50.3939 39.953 50.3295 39.8717 50.1683L29.7707 30.1337Z" fill="#2B2A2A"/>
<path fill-rule="evenodd" clip-rule="evenodd" d="M30.8727 26.7386C30.9176 26.6079 31.0599 26.5385 31.1905 26.5834C31.321 26.6284 31.3904 26.7706 31.3455 26.9011L22.8688 51.5662C22.8239 51.6968 22.6816 51.7663 22.551 51.7213C22.4205 51.6764 22.3511 51.5342 22.396 51.4037L30.8727 26.7386Z" fill="#FF9500"/>
<path fill-rule="evenodd" clip-rule="evenodd" d="M30 31.25C30.6904 31.25 31.25 30.6904 31.25 30C31.25 29.3096 30.6904 28.75 30 28.75C29.3096 28.75 28.75 29.3096 28.75 30C28.75 30.6904 29.3096 31.25 30 31.25Z" fill="#2B2A2A"/>
<path fill-rule="evenodd" clip-rule="evenodd" d="M30 30.75C30.4142 30.75 30.75 30.4142 30.75 30C30.75 29.5858 30.4142 29.25 30 29.25C29.5858 29.25 29.25 29.5858 29.25 30C29.25 30.4142 29.5858 30.75 30 30.75Z" fill="#FF9500"/>
<defs>
<linearGradient id="paint0_linear_119_2961" x1="4" y1="4" x2="4" y2="56" gradientUnits="userSpaceOnUse">
<stop stop-color="#F5F4F9"/>
<stop offset="1" stop-color="#EEEEEE"/>
</linearGradient>
</defs>
</svg>
