<svg width="60" height="60" viewBox="0 0 60 60" fill="none" xmlns="http://www.w3.org/2000/svg">
<path fill-rule="evenodd" clip-rule="evenodd" d="M39.0815 0C45.105 0 48.116 0 51.3585 1.025C54.8985 2.3135 57.6865 5.1015 58.975 8.6415C60 11.8835 60 14.8955 60 20.9185V39.0815C60 45.105 60 48.116 58.975 51.3585C57.6865 54.8985 54.8985 57.6865 51.3585 58.9745C48.116 60 45.105 60 39.0815 60H20.9185C14.895 60 11.8835 60 8.6415 58.9745C5.1015 57.6865 2.3135 54.8985 1.025 51.3585C0 48.116 0 45.105 0 39.0815V20.9185C0 14.8955 0 11.8835 1.025 8.6415C2.3135 5.1015 5.1015 2.3135 8.6415 1.025C11.8835 0 14.895 0 20.9185 0H39.0815Z" fill="white"/>
<path fill-rule="evenodd" clip-rule="evenodd" d="M50.5 18C50.5 13.4774 47.0302 10 43 10C40.1847 10 37.9106 10.9579 36.5 13C35.0894 10.9579 32.8153 10 30.5 10C25.9698 10 22.5 13.4774 22.5 18C22.5 17.8081 22.5003 17.8492 22.5 18C22.5003 17.9322 22.5 17.9747 22.5 18C22.5 24.7266 28.9714 31.5677 36.5 34.5C42.4371 32.4956 50.5 24.7266 50.5 18C50.4997 17.9335 50.5 17.9753 50.5 18C50.5 17.8088 50.4997 17.8505 50.5 18Z" fill="url(#paint0_linear_119_2822)"/>
<defs>
<linearGradient id="paint0_linear_119_2822" x1="22.5" y1="10" x2="22.5" y2="34.5" gradientUnits="userSpaceOnUse">
<stop stop-color="#FF61AD"/>
<stop offset="1" stop-color="#FF2719"/>
</linearGradient>
</defs>
</svg>
