<svg width="60" height="60" viewBox="0 0 60 60" fill="none" xmlns="http://www.w3.org/2000/svg">
<path fill-rule="evenodd" clip-rule="evenodd" d="M39.0815 0C45.105 0 48.116 0 51.3585 1.025C54.8985 2.3135 57.6865 5.1015 58.975 8.6415C60 11.8835 60 14.8955 60 20.9185V39.0815C60 45.105 60 48.116 58.975 51.3585C57.6865 54.8985 54.8985 57.6865 51.3585 58.9745C48.116 60 45.105 60 39.0815 60H20.9185C14.895 60 11.8835 60 8.6415 58.9745C5.1015 57.6865 2.3135 54.8985 1.025 51.3585C0 48.116 0 45.105 0 39.0815V20.9185C0 14.8955 0 11.8835 1.025 8.6415C2.3135 5.1015 5.1015 2.3135 8.6415 1.025C11.8835 0 14.895 0 20.9185 0H39.0815Z" fill="url(#paint0_linear_119_2854)"/>
<path fill-rule="evenodd" clip-rule="evenodd" d="M19.7126 13.5C11.9502 13.5 10 18.5 10 18.5V42.285C10 43.146 11.0592 43.6577 11.7813 43.189C13.5786 42.0226 16.5439 40.5 19.7773 40.5C27.0182 40.5 29.5 48 29.5 48V20C29.5 20 27.4751 13.5 19.7126 13.5ZM40.2874 13.5C48.0498 13.5 50 18.5 50 18.5V42.285C50 43.146 48.9408 43.6577 48.2187 43.189C46.4214 42.0226 43.4561 40.5 40.2227 40.5C32.9818 40.5 30.5 48 30.5 48V20C30.5 20 32.5249 13.5 40.2874 13.5Z" fill="white"/>
<defs>
<linearGradient id="paint0_linear_119_2854" x1="0" y1="0" x2="0" y2="60" gradientUnits="userSpaceOnUse">
<stop stop-color="#FFA700"/>
<stop offset="1" stop-color="#F9661E"/>
</linearGradient>
</defs>
</svg>
