<svg width="60" height="60" viewBox="0 0 60 60" fill="none" xmlns="http://www.w3.org/2000/svg">
<path fill-rule="evenodd" clip-rule="evenodd" d="M39.0815 0C45.105 0 48.116 0 51.3585 1.025C54.8985 2.3135 57.6865 5.1015 58.975 8.6415C60 11.8835 60 14.8955 60 20.9185V39.0815C60 45.105 60 48.116 58.975 51.3585C57.6865 54.8985 54.8985 57.6865 51.3585 58.9745C48.116 60 45.105 60 39.0815 60H20.9185C14.895 60 11.8835 60 8.6415 58.9745C5.1015 57.6865 2.3135 54.8985 1.025 51.3585C0 48.116 0 45.105 0 39.0815V20.9185C0 14.8955 0 11.8835 1.025 8.6415C2.3135 5.1015 5.1015 2.3135 8.6415 1.025C11.8835 0 14.895 0 20.9185 0H39.0815Z" fill="url(#paint0_linear_119_2845)"/>
<mask id="mask0_119_2845" style="mask-type:alpha" maskUnits="userSpaceOnUse" x="0" y="0" width="60" height="60">
<path fill-rule="evenodd" clip-rule="evenodd" d="M39.0815 0C45.105 0 48.116 0 51.3585 1.025C54.8985 2.3135 57.6865 5.1015 58.975 8.6415C60 11.8835 60 14.8955 60 20.9185V39.0815C60 45.105 60 48.116 58.975 51.3585C57.6865 54.8985 54.8985 57.6865 51.3585 58.9745C48.116 60 45.105 60 39.0815 60H20.9185C14.895 60 11.8835 60 8.6415 58.9745C5.1015 57.6865 2.3135 54.8985 1.025 51.3585C0 48.116 0 45.105 0 39.0815V20.9185C0 14.8955 0 11.8835 1.025 8.6415C2.3135 5.1015 5.1015 2.3135 8.6415 1.025C11.8835 0 14.895 0 20.9185 0H39.0815Z" fill="white"/>
</mask>
<g mask="url(#mask0_119_2845)">
<path fill-rule="evenodd" clip-rule="evenodd" d="M51.9587 23.6314L35.7975 23.5915L30.6986 8.59787C30.4246 7.79287 29.2824 7.80336 29.0236 8.61377L24.243 23.5915H24.2393L7.88223 23.6314C7.03157 23.6328 6.67574 24.7182 7.36033 25.2228L20.1659 34.6653L15.1533 50.5117C14.8952 51.3217 15.8209 51.9918 16.5099 51.4935L29.9873 41.9969L43.3384 51.4935C44.0277 51.9918 44.9532 51.3217 44.6954 50.5117L39.675 34.6653L52.4806 25.2228C53.1652 24.7182 52.809 23.6328 51.9587 23.6314Z" fill="white" fill-opacity="0.7"/>
<path fill-rule="evenodd" clip-rule="evenodd" d="M30.0125 41.9642L39.7006 34.6326L35.823 23.5588H24.2649L20.1912 34.6326L30.0125 41.9642Z" fill="white"/>
</g>
<defs>
<linearGradient id="paint0_linear_119_2845" x1="2.97094" y1="0" x2="2.97094" y2="54.0581" gradientUnits="userSpaceOnUse">
<stop stop-color="#FC5BC4"/>
<stop offset="1" stop-color="#D03DEF"/>
</linearGradient>
</defs>
</svg>
