<svg width="60" height="60" viewBox="0 0 60 60" fill="none" xmlns="http://www.w3.org/2000/svg">
<path fill-rule="evenodd" clip-rule="evenodd" d="M39.0815 0C45.105 0 48.116 0 51.3585 1.025C54.8985 2.3135 57.6865 5.1015 58.975 8.6415C60 11.8835 60 14.8955 60 20.9185V39.0815C60 45.105 60 48.116 58.975 51.3585C57.6865 54.8985 54.8985 57.6865 51.3585 58.9745C48.116 60 45.105 60 39.0815 60H20.9185C14.895 60 11.8835 60 8.6415 58.9745C5.1015 57.6865 2.3135 54.8985 1.025 51.3585C0 48.116 0 45.105 0 39.0815V20.9185C0 14.8955 0 11.8835 1.025 8.6415C2.3135 5.1015 5.1015 2.3135 8.6415 1.025C11.8835 0 14.895 0 20.9185 0H39.0815Z" fill="white"/>
<path fill-rule="evenodd" clip-rule="evenodd" d="M12 44.8265C12 47.4076 14.0586 49.5 17.2549 49.5H17.5686C21.4218 49.5 23.4804 46.7437 23.4804 43.4986V23.017C23.4804 22.6482 23.7693 22.2897 24.1242 22.2167L40.7287 18.6983C41.0843 18.6251 41.3725 18.8662 41.3725 19.2306V32.9468C41.3365 34.0933 41.1347 34.7355 40.7517 35.2435C40.3743 35.7439 39.7617 36.0862 39.0327 36.1471H37.1176C34.5782 36.1471 32.5196 38.2395 32.5196 40.8206C32.5196 43.4017 34.5782 45.4941 37.7745 45.4941H38.0882C41.9414 45.4941 44 42.7378 44 39.4928V14.445V10.6005C44 9.86571 43.4272 9.38322 42.7118 9.5246L22.1411 13.6889C21.4297 13.8295 20.8529 14.5376 20.8529 15.2854V18.4508V36.9526C20.8169 38.0992 20.6151 38.7414 20.2321 39.2494C19.8547 39.7498 19.2421 40.0921 18.5131 40.153H16.598C14.0586 40.153 12 42.2454 12 44.8265Z" fill="url(#paint0_angular_119_2695)"/>
<defs>
<radialGradient id="paint0_angular_119_2695" cx="0" cy="0" r="1" gradientUnits="userSpaceOnUse" gradientTransform="translate(28 29.5) scale(16 20)">
<stop offset="0.0496563" stop-color="#68AADB"/>
<stop offset="0.176517" stop-color="#629FF1"/>
<stop offset="0.346663" stop-color="#9572FD"/>
<stop offset="0.686292" stop-color="#EF6773"/>
<stop offset="0.809772" stop-color="#ED6677"/>
<stop offset="0.872173" stop-color="#D27198"/>
</radialGradient>
</defs>
</svg>
