<svg width="60" height="60" viewBox="0 0 60 60" fill="none" xmlns="http://www.w3.org/2000/svg">
<path fill-rule="evenodd" clip-rule="evenodd" d="M39.0815 0C45.105 0 48.116 0 51.3585 1.025C54.8985 2.3135 57.6865 5.1015 58.975 8.6415C60 11.8835 60 14.8955 60 20.9185V39.0815C60 45.105 60 48.116 58.975 51.3585C57.6865 54.8985 54.8985 57.6865 51.3585 58.9745C48.116 60 45.105 60 39.0815 60H20.9185C14.895 60 11.8835 60 8.6415 58.9745C5.1015 57.6865 2.3135 54.8985 1.025 51.3585C0 48.116 0 45.105 0 39.0815V20.9185C0 14.8955 0 11.8835 1.025 8.6415C2.3135 5.1015 5.1015 2.3135 8.6415 1.025C11.8835 0 14.895 0 20.9185 0H39.0815Z" fill="white"/>
<mask id="mask0_119_2907" style="mask-type:alpha" maskUnits="userSpaceOnUse" x="0" y="0" width="60" height="60">
<path fill-rule="evenodd" clip-rule="evenodd" d="M39.0815 0C45.105 0 48.116 0 51.3585 1.025C54.8985 2.3135 57.6865 5.1015 58.975 8.6415C60 11.8835 60 14.8955 60 20.9185V39.0815C60 45.105 60 48.116 58.975 51.3585C57.6865 54.8985 54.8985 57.6865 51.3585 58.9745C48.116 60 45.105 60 39.0815 60H20.9185C14.895 60 11.8835 60 8.6415 58.9745C5.1015 57.6865 2.3135 54.8985 1.025 51.3585C0 48.116 0 45.105 0 39.0815V20.9185C0 14.8955 0 11.8835 1.025 8.6415C2.3135 5.1015 5.1015 2.3135 8.6415 1.025C11.8835 0 14.895 0 20.9185 0H39.0815Z" fill="white"/>
</mask>
<g mask="url(#mask0_119_2907)">
<path fill-rule="evenodd" clip-rule="evenodd" d="M0 33.5V33H60V33.5H0ZM0 47V46.5H60V47H0Z" fill="black" fill-opacity="0.29"/>
<g filter="url(#filter0_ddii_119_2907)">
<path fill-rule="evenodd" clip-rule="evenodd" d="M-1 0V18.5H61V0H-1Z" fill="url(#paint0_linear_119_2907)"/>
</g>
<g filter="url(#filter1_d_119_2907)">
<path fill-rule="evenodd" clip-rule="evenodd" d="M1 23C1.27614 23 1.5 22.7761 1.5 22.5C1.5 22.2239 1.27614 22 1 22C0.723858 22 0.5 22.2239 0.5 22.5C0.5 22.7761 0.723858 23 1 23ZM3 23C3.27614 23 3.5 22.7761 3.5 22.5C3.5 22.2239 3.27614 22 3 22C2.72386 22 2.5 22.2239 2.5 22.5C2.5 22.7761 2.72386 23 3 23ZM5 23C5.27614 23 5.5 22.7761 5.5 22.5C5.5 22.2239 5.27614 22 5 22C4.72386 22 4.5 22.2239 4.5 22.5C4.5 22.7761 4.72386 23 5 23ZM7 23C7.27614 23 7.5 22.7761 7.5 22.5C7.5 22.2239 7.27614 22 7 22C6.72386 22 6.5 22.2239 6.5 22.5C6.5 22.7761 6.72386 23 7 23ZM9 23C9.27614 23 9.5 22.7761 9.5 22.5C9.5 22.2239 9.27614 22 9 22C8.72386 22 8.5 22.2239 8.5 22.5C8.5 22.7761 8.72386 23 9 23ZM11 23C11.2761 23 11.5 22.7761 11.5 22.5C11.5 22.2239 11.2761 22 11 22C10.7239 22 10.5 22.2239 10.5 22.5C10.5 22.7761 10.7239 23 11 23ZM13 23C13.2761 23 13.5 22.7761 13.5 22.5C13.5 22.2239 13.2761 22 13 22C12.7239 22 12.5 22.2239 12.5 22.5C12.5 22.7761 12.7239 23 13 23ZM15 23C15.2761 23 15.5 22.7761 15.5 22.5C15.5 22.2239 15.2761 22 15 22C14.7239 22 14.5 22.2239 14.5 22.5C14.5 22.7761 14.7239 23 15 23ZM17 23C17.2761 23 17.5 22.7761 17.5 22.5C17.5 22.2239 17.2761 22 17 22C16.7239 22 16.5 22.2239 16.5 22.5C16.5 22.7761 16.7239 23 17 23ZM19 23C19.2761 23 19.5 22.7761 19.5 22.5C19.5 22.2239 19.2761 22 19 22C18.7239 22 18.5 22.2239 18.5 22.5C18.5 22.7761 18.7239 23 19 23ZM21 23C21.2761 23 21.5 22.7761 21.5 22.5C21.5 22.2239 21.2761 22 21 22C20.7239 22 20.5 22.2239 20.5 22.5C20.5 22.7761 20.7239 23 21 23ZM23 23C23.2761 23 23.5 22.7761 23.5 22.5C23.5 22.2239 23.2761 22 23 22C22.7239 22 22.5 22.2239 22.5 22.5C22.5 22.7761 22.7239 23 23 23ZM25 23C25.2761 23 25.5 22.7761 25.5 22.5C25.5 22.2239 25.2761 22 25 22C24.7239 22 24.5 22.2239 24.5 22.5C24.5 22.7761 24.7239 23 25 23ZM27 23C27.2761 23 27.5 22.7761 27.5 22.5C27.5 22.2239 27.2761 22 27 22C26.7239 22 26.5 22.2239 26.5 22.5C26.5 22.7761 26.7239 23 27 23ZM29 23C29.2761 23 29.5 22.7761 29.5 22.5C29.5 22.2239 29.2761 22 29 22C28.7239 22 28.5 22.2239 28.5 22.5C28.5 22.7761 28.7239 23 29 23ZM31 23C31.2761 23 31.5 22.7761 31.5 22.5C31.5 22.2239 31.2761 22 31 22C30.7239 22 30.5 22.2239 30.5 22.5C30.5 22.7761 30.7239 23 31 23ZM33 23C33.2761 23 33.5 22.7761 33.5 22.5C33.5 22.2239 33.2761 22 33 22C32.7239 22 32.5 22.2239 32.5 22.5C32.5 22.7761 32.7239 23 33 23ZM35 23C35.2761 23 35.5 22.7761 35.5 22.5C35.5 22.2239 35.2761 22 35 22C34.7239 22 34.5 22.2239 34.5 22.5C34.5 22.7761 34.7239 23 35 23ZM37 23C37.2761 23 37.5 22.7761 37.5 22.5C37.5 22.2239 37.2761 22 37 22C36.7239 22 36.5 22.2239 36.5 22.5C36.5 22.7761 36.7239 23 37 23ZM39 23C39.2761 23 39.5 22.7761 39.5 22.5C39.5 22.2239 39.2761 22 39 22C38.7239 22 38.5 22.2239 38.5 22.5C38.5 22.7761 38.7239 23 39 23ZM41 23C41.2761 23 41.5 22.7761 41.5 22.5C41.5 22.2239 41.2761 22 41 22C40.7239 22 40.5 22.2239 40.5 22.5C40.5 22.7761 40.7239 23 41 23ZM43 23C43.2761 23 43.5 22.7761 43.5 22.5C43.5 22.2239 43.2761 22 43 22C42.7239 22 42.5 22.2239 42.5 22.5C42.5 22.7761 42.7239 23 43 23ZM45 23C45.2761 23 45.5 22.7761 45.5 22.5C45.5 22.2239 45.2761 22 45 22C44.7239 22 44.5 22.2239 44.5 22.5C44.5 22.7761 44.7239 23 45 23ZM47 23C47.2761 23 47.5 22.7761 47.5 22.5C47.5 22.2239 47.2761 22 47 22C46.7239 22 46.5 22.2239 46.5 22.5C46.5 22.7761 46.7239 23 47 23ZM49 23C49.2761 23 49.5 22.7761 49.5 22.5C49.5 22.2239 49.2761 22 49 22C48.7239 22 48.5 22.2239 48.5 22.5C48.5 22.7761 48.7239 23 49 23ZM51 23C51.2761 23 51.5 22.7761 51.5 22.5C51.5 22.2239 51.2761 22 51 22C50.7239 22 50.5 22.2239 50.5 22.5C50.5 22.7761 50.7239 23 51 23ZM53 23C53.2761 23 53.5 22.7761 53.5 22.5C53.5 22.2239 53.2761 22 53 22C52.7239 22 52.5 22.2239 52.5 22.5C52.5 22.7761 52.7239 23 53 23ZM55 23C55.2761 23 55.5 22.7761 55.5 22.5C55.5 22.2239 55.2761 22 55 22C54.7239 22 54.5 22.2239 54.5 22.5C54.5 22.7761 54.7239 23 55 23ZM57 23C57.2761 23 57.5 22.7761 57.5 22.5C57.5 22.2239 57.2761 22 57 22C56.7239 22 56.5 22.2239 56.5 22.5C56.5 22.7761 56.7239 23 57 23ZM59 23C59.2761 23 59.5 22.7761 59.5 22.5C59.5 22.2239 59.2761 22 59 22C58.7239 22 58.5 22.2239 58.5 22.5C58.5 22.7761 58.7239 23 59 23Z" fill="#AAAAAA"/>
</g>
</g>
<defs>
<filter id="filter0_ddii_119_2907" x="-3" y="0" width="66" height="22.5" filterUnits="userSpaceOnUse" color-interpolation-filters="sRGB">
<feFlood flood-opacity="0" result="BackgroundImageFix"/>
<feColorMatrix in="SourceAlpha" type="matrix" values="0 0 0 0 0 0 0 0 0 0 0 0 0 0 0 0 0 0 127 0" result="hardAlpha"/>
<feOffset dy="2"/>
<feGaussianBlur stdDeviation="1"/>
<feColorMatrix type="matrix" values="0 0 0 0 0 0 0 0 0 0 0 0 0 0 0 0 0 0 0.1 0"/>
<feBlend mode="normal" in2="BackgroundImageFix" result="effect1_dropShadow_119_2907"/>
<feColorMatrix in="SourceAlpha" type="matrix" values="0 0 0 0 0 0 0 0 0 0 0 0 0 0 0 0 0 0 127 0" result="hardAlpha"/>
<feOffset dy="1"/>
<feColorMatrix type="matrix" values="0 0 0 0 0 0 0 0 0 0 0 0 0 0 0 0 0 0 0.3 0"/>
<feBlend mode="normal" in2="effect1_dropShadow_119_2907" result="effect2_dropShadow_119_2907"/>
<feBlend mode="normal" in="SourceGraphic" in2="effect2_dropShadow_119_2907" result="shape"/>
<feColorMatrix in="SourceAlpha" type="matrix" values="0 0 0 0 0 0 0 0 0 0 0 0 0 0 0 0 0 0 127 0" result="hardAlpha"/>
<feOffset dy="1"/>
<feComposite in2="hardAlpha" operator="arithmetic" k2="-1" k3="1"/>
<feColorMatrix type="matrix" values="0 0 0 0 1 0 0 0 0 0.878431 0 0 0 0 0.4 0 0 0 1 0"/>
<feBlend mode="normal" in2="shape" result="effect3_innerShadow_119_2907"/>
<feColorMatrix in="SourceAlpha" type="matrix" values="0 0 0 0 0 0 0 0 0 0 0 0 0 0 0 0 0 0 127 0" result="hardAlpha"/>
<feOffset dy="-1"/>
<feComposite in2="hardAlpha" operator="arithmetic" k2="-1" k3="1"/>
<feColorMatrix type="matrix" values="0 0 0 0 0.87451 0 0 0 0 0.698039 0 0 0 0 0.00392157 0 0 0 1 0"/>
<feBlend mode="normal" in2="effect3_innerShadow_119_2907" result="effect4_innerShadow_119_2907"/>
</filter>
<filter id="filter1_d_119_2907" x="0.5" y="22" width="59" height="2" filterUnits="userSpaceOnUse" color-interpolation-filters="sRGB">
<feFlood flood-opacity="0" result="BackgroundImageFix"/>
<feColorMatrix in="SourceAlpha" type="matrix" values="0 0 0 0 0 0 0 0 0 0 0 0 0 0 0 0 0 0 127 0" result="hardAlpha"/>
<feOffset dy="1"/>
<feColorMatrix type="matrix" values="0 0 0 0 1 0 0 0 0 1 0 0 0 0 1 0 0 0 0.1 0"/>
<feBlend mode="normal" in2="BackgroundImageFix" result="effect1_dropShadow_119_2907"/>
<feBlend mode="normal" in="SourceGraphic" in2="effect1_dropShadow_119_2907" result="shape"/>
</filter>
<linearGradient id="paint0_linear_119_2907" x1="-1" y1="0" x2="-1" y2="18.5" gradientUnits="userSpaceOnUse">
<stop stop-color="#FFDB4C"/>
<stop offset="1" stop-color="#FFCD02"/>
</linearGradient>
</defs>
</svg>
