<svg width="61" height="60" viewBox="0 0 61 60" fill="none" xmlns="http://www.w3.org/2000/svg">
<path fill-rule="evenodd" clip-rule="evenodd" d="M39.5815 0C45.605 0 48.616 0 51.8585 1.025C55.3985 2.3135 58.1865 5.1015 59.475 8.6415C60.5 11.8835 60.5 14.8955 60.5 20.9185V39.0815C60.5 45.105 60.5 48.116 59.475 51.3585C58.1865 54.8985 55.3985 57.6865 51.8585 58.9745C48.616 60 45.605 60 39.5815 60H21.4185C15.395 60 12.3835 60 9.1415 58.9745C5.6015 57.6865 2.8135 54.8985 1.525 51.3585C0.5 48.116 0.5 45.105 0.5 39.0815V20.9185C0.5 14.8955 0.5 11.8835 1.525 8.6415C2.8135 5.1015 5.6015 2.3135 9.1415 1.025C12.3835 0 15.395 0 21.4185 0H39.5815Z" fill="#D4D4D2"/>
<path fill-rule="evenodd" clip-rule="evenodd" d="M40.449 7H19.551C16.7614 7 14.5 9.38309 14.5 12.3232V47.3635C14.5 50.3038 16.7614 52.6869 19.551 52.6869H40.449C43.2386 52.6869 45.5 50.3038 45.5 47.3635V12.3232C45.5 9.38309 43.2386 7 40.449 7Z" fill="#1D1D1D"/>
<path fill-rule="evenodd" clip-rule="evenodd" d="M33.2171 46.5C33.2171 48.4327 31.6101 50 29.6279 50H21.0893C19.1072 50 17.5 48.4327 17.5 46.5C17.5 44.5668 19.1072 43 21.0893 43H29.6279C31.6101 43 33.2171 44.5668 33.2171 46.5Z" fill="#EFEFF4"/>
<path fill-rule="evenodd" clip-rule="evenodd" d="M38.9719 50C37.0544 50 35.5 48.4327 35.5 46.5C35.5 44.567 37.0544 43 38.9719 43C40.8891 43 42.4437 44.567 42.4437 46.5C42.4437 48.4327 40.8891 50 38.9719 50Z" fill="#FF9500"/>
<path fill-rule="evenodd" clip-rule="evenodd" d="M39 33C40.933 33 42.5 34.567 42.5 36.5C42.5 38.433 40.933 40 39 40C37.067 40 35.5 38.433 35.5 36.5C35.5 34.567 37.067 33 39 33Z" fill="#FF9500"/>
<path fill-rule="evenodd" clip-rule="evenodd" d="M30 30.8592C28.0673 30.8592 26.5 29.2922 26.5 27.3592C26.5 25.4265 28.0673 23.8592 30 23.8592C31.933 23.8592 33.5 25.4265 33.5 27.3592C33.5 29.2922 31.933 30.8592 30 30.8592Z" fill="#EFEFF4"/>
<path fill-rule="evenodd" clip-rule="evenodd" d="M30 39.955C28.0673 39.955 26.5 38.388 26.5 36.455C26.5 34.522 28.0673 32.955 30 32.955C31.933 32.955 33.5 34.522 33.5 36.455C33.5 38.388 31.933 39.955 30 39.955Z" fill="#EFEFF4"/>
<path fill-rule="evenodd" clip-rule="evenodd" d="M21 33C22.9332 33 24.5 34.567 24.5 36.5C24.5 38.433 22.9332 40 21 40C19.0673 40 17.5 38.433 17.5 36.5C17.5 34.567 19.0673 33 21 33Z" fill="#EFEFF4"/>
<path fill-rule="evenodd" clip-rule="evenodd" d="M21 24C22.9332 24 24.5 25.5673 24.5 27.5C24.5 29.433 22.9332 31 21 31C19.0673 31 17.5 29.433 17.5 27.5C17.5 25.5673 19.0673 24 21 24Z" fill="#EFEFF4"/>
<path fill-rule="evenodd" clip-rule="evenodd" d="M42.5 27.5C42.5 29.433 40.933 31 39 31C37.067 31 35.5 29.433 35.5 27.5C35.5 25.5673 37.067 24 39 24C40.933 24 42.5 25.5673 42.5 27.5Z" fill="#FF9500"/>
<rect x="17.5" y="11" width="25" height="10.5" rx="2" fill="#666666"/>
</svg>
