<svg width="60" height="60" viewBox="0 0 60 60" fill="none" xmlns="http://www.w3.org/2000/svg">
<path fill-rule="evenodd" clip-rule="evenodd" d="M39.0815 0C45.105 0 48.116 0 51.3585 1.025C54.8985 2.3135 57.6865 5.1015 58.975 8.6415C60 11.8835 60 14.8955 60 20.9185V39.0815C60 45.105 60 48.116 58.975 51.3585C57.6865 54.8985 54.8985 57.6865 51.3585 58.9745C48.116 60 45.105 60 39.0815 60H20.9185C14.895 60 11.8835 60 8.6415 58.9745C5.1015 57.6865 2.3135 54.8985 1.025 51.3585C0 48.116 0 45.105 0 39.0815V20.9185C0 14.8955 0 11.8835 1.025 8.6415C2.3135 5.1015 5.1015 2.3135 8.6415 1.025C11.8835 0 14.895 0 20.9185 0H39.0815Z" fill="white"/>
<path fill-rule="evenodd" clip-rule="evenodd" d="M30 56C44.3594 56 56 44.3594 56 30C56 15.6406 44.3594 4 30 4C15.6406 4 4 15.6406 4 30C4 44.3594 15.6406 56 30 56Z" fill="url(#paint0_linear_119_2703)"/>
<path fill-rule="evenodd" clip-rule="evenodd" d="M29.5 6H30V10.5H29.5V6ZM33.6714 6.3212L34.1638 6.40803L33.3823 10.8397L32.8899 10.7528L33.6714 6.3212ZM37.7236 7.36187L38.1934 7.53288L36.6543 11.7615L36.1845 11.5905L37.7236 7.36187ZM41.5335 9.09039L41.9665 9.34039L39.7165 13.2375L39.2835 12.9875L41.5335 9.09039ZM44.9854 11.4542L45.3684 11.7756L42.4759 15.2228L42.0928 14.9014L44.9854 11.4542ZM47.9744 14.3816L48.2958 14.7646L44.8486 17.6572L44.5272 17.2741L47.9744 14.3816ZM50.4096 17.7835L50.6596 18.2165L46.7625 20.4665L46.5125 20.0335L50.4096 17.7835ZM52.2171 21.5566L52.3881 22.0264L48.1595 23.5655L47.9885 23.0957L52.2171 21.5566ZM53.342 25.5862L53.4288 26.0786L48.9972 26.8601L48.9103 26.3677L53.342 25.5862ZM53.75 29.75V30.25H49.25V29.75H53.75ZM53.4288 33.9214L53.342 34.4138L48.9103 33.6323L48.9972 33.1399L53.4288 33.9214ZM52.3881 37.9736L52.2171 38.4434L47.9885 36.9043L48.1595 36.4345L52.3881 37.9736ZM50.6596 41.7835L50.4096 42.2165L46.5125 39.9665L46.7625 39.5335L50.6596 41.7835ZM48.2958 45.2354L47.9744 45.6184L44.5272 42.7259L44.8486 42.3428L48.2958 45.2354ZM45.3684 48.2244L44.9854 48.5458L42.0928 45.0986L42.4759 44.7772L45.3684 48.2244ZM41.9665 50.6596L41.5335 50.9096L39.2835 47.0125L39.7165 46.7625L41.9665 50.6596ZM38.1934 52.4671L37.7236 52.6381L36.1845 48.4095L36.6543 48.2385L38.1934 52.4671ZM34.1638 53.592L33.6714 53.6788L32.8899 49.2472L33.3823 49.1603L34.1638 53.592ZM30 54H29.5V49.5H30V54ZM25.8286 53.6788L25.3362 53.592L26.1177 49.1603L26.6101 49.2472L25.8286 53.6788ZM21.7764 52.6381L21.3066 52.4671L22.8457 48.2385L23.3155 48.4095L21.7764 52.6381ZM17.9665 50.9096L17.5335 50.6596L19.7835 46.7625L20.2165 47.0125L17.9665 50.9096ZM14.5146 48.5458L14.1316 48.2244L17.0241 44.7772L17.4072 45.0986L14.5146 48.5458ZM11.5256 45.6184L11.2042 45.2354L14.6514 42.3428L14.9728 42.7259L11.5256 45.6184ZM9.09039 42.2165L8.84039 41.7835L12.7375 39.5335L12.9875 39.9665L9.09039 42.2165ZM7.28288 38.4434L7.11187 37.9736L11.3405 36.4345L11.5115 36.9043L7.28288 38.4434ZM6.15803 34.4138L6.0712 33.9214L10.5028 33.1399L10.5897 33.6323L6.15803 34.4138ZM5.75 30.25V29.75H10.25V30.25H5.75ZM6.0712 26.0786L6.15803 25.5862L10.5897 26.3677L10.5028 26.8601L6.0712 26.0786ZM7.11187 22.0264L7.28288 21.5566L11.5115 23.0957L11.3405 23.5655L7.11187 22.0264ZM8.84039 18.2165L9.09039 17.7835L12.9875 20.0335L12.7375 20.4665L8.84039 18.2165ZM11.2042 14.7646L11.5256 14.3816L14.9728 17.2741L14.6514 17.6572L11.2042 14.7646ZM14.1316 11.7756L14.5146 11.4542L17.4072 14.9014L17.0241 15.2228L14.1316 11.7756ZM17.5335 9.34039L17.9665 9.09039L20.2165 12.9875L19.7835 13.2375L17.5335 9.34039ZM21.3066 7.53288L21.7764 7.36187L23.3155 11.5905L22.8457 11.7615L21.3066 7.53288ZM25.3362 6.40803L25.8286 6.3212L26.6101 10.7528L26.1177 10.8397L25.3362 6.40803Z" fill="white"/>
<path fill-rule="evenodd" clip-rule="evenodd" d="M32.0908 6.11313L31.5927 6.06955L31.3748 8.56004L31.8729 8.60362L32.0908 6.11313ZM36.2032 6.8825L35.7202 6.75309L35.0732 9.1679L35.5561 9.29731L36.2032 6.8825ZM39.6663 8.14297L40.1195 8.35428L39.0629 10.6201L38.6098 10.4087L39.6663 8.14297ZM43.7207 10.4838L43.3111 10.197L41.8771 12.2449L42.2867 12.5316L43.7207 10.4838ZM46.5438 12.8527L46.8974 13.2062L45.1296 14.974L44.7761 14.6204L46.5438 12.8527ZM49.5531 16.439L49.2663 16.0294L47.2184 17.4633L47.5052 17.8729L49.5531 16.439ZM51.3958 19.6306L51.6071 20.0838L49.3413 21.1403L49.13 20.6871L51.3958 19.6306ZM52.997 24.0298L52.8676 23.5469L50.4527 24.1939L50.5821 24.6769L52.997 24.0298ZM53.6369 27.6592L53.6805 28.1573L51.19 28.3752L51.1464 27.8771L53.6369 27.6592ZM53.6369 32.3408L53.6805 31.8427L51.19 31.6248L51.1464 32.1229L53.6369 32.3408ZM52.997 35.9702L52.8676 36.4532L50.4527 35.8061L50.5822 35.3231L52.997 35.9702ZM51.3958 40.3694L51.6071 39.9163L49.3413 38.8597L49.13 39.3129L51.3958 40.3694ZM49.5531 43.5611L49.2663 43.9706L47.2184 42.5367L47.5052 42.1271L49.5531 43.5611ZM46.5438 47.1474L46.8974 46.7938L45.1296 45.026L44.7761 45.3796L46.5438 47.1474ZM43.7207 49.5163L43.3111 49.8031L41.8771 47.7552L42.2867 47.4684L43.7207 49.5163ZM39.6663 51.8571L40.1195 51.6457L39.0629 49.38L38.6098 49.5913L39.6663 51.8571ZM36.2032 53.1175L35.7202 53.2469L35.0732 50.8321L35.5561 50.7027L36.2032 53.1175ZM31.5927 53.9305L32.0908 53.8869L31.8729 51.3964L31.3748 51.44L31.5927 53.9305ZM27.9074 53.9305L27.4093 53.8869L27.6271 51.3964L28.1252 51.44L27.9074 53.9305ZM23.2969 53.1175L23.7799 53.2469L24.4269 50.8321L23.944 50.7027L23.2969 53.1175ZM19.8338 51.8571L19.3806 51.6457L20.4372 49.38L20.8903 49.5913L19.8338 51.8571ZM15.7794 49.5163L16.189 49.8031L17.6229 47.7552L17.2134 47.4684L15.7794 49.5163ZM12.9563 47.1474L12.6027 46.7938L14.3705 45.026L14.724 45.3796L12.9563 47.1474ZM9.947 43.5611L10.2338 43.9706L12.2817 42.5367L11.9949 42.1271L9.947 43.5611ZM8.10431 40.3694L7.893 39.9163L10.1588 38.8597L10.3701 39.3129L8.10431 40.3694ZM6.50312 35.9702L6.63253 36.4532L9.04734 35.8061L8.91793 35.3231L6.50312 35.9702ZM5.86316 32.3408L5.81958 31.8427L8.31007 31.6248L8.35364 32.1229L5.86316 32.3408ZM5.86316 27.6592L5.81958 28.1573L8.31007 28.3752L8.35364 27.8771L5.86316 27.6592ZM6.50312 24.0298L6.63253 23.5469L9.04734 24.1939L8.91793 24.6769L6.50312 24.0298ZM8.10431 19.6306L7.893 20.0838L10.1588 21.1403L10.3701 20.6871L8.10431 19.6306ZM9.947 16.439L10.2338 16.0294L12.2817 17.4633L11.9949 17.8729L9.947 16.439ZM12.9563 12.8527L12.6027 13.2062L14.3705 14.974L14.724 14.6204L12.9563 12.8527ZM15.7794 10.4838L16.189 10.197L17.6229 12.2449L17.2134 12.5316L15.7794 10.4838ZM19.8338 8.14297L19.3806 8.35428L20.4372 10.6201L20.8903 10.4087L19.8338 8.14297ZM23.2969 6.8825L23.7799 6.75309L24.4269 9.1679L23.944 9.29731L23.2969 6.8825ZM27.9074 6.06955L27.4093 6.11313L27.6271 8.60362L28.1252 8.56004L27.9074 6.06955Z" fill="white"/>
<path fill-rule="evenodd" clip-rule="evenodd" d="M27.5251 27.5251L11.5 48.208L32.4749 32.4749L27.5251 27.5251L48.208 11.4384L32.4749 32.4749L27.5251 27.5251Z" fill="white"/>
<mask id="mask0_119_2703" style="mask-type:alpha" maskUnits="userSpaceOnUse" x="11" y="11" width="38" height="38">
<path fill-rule="evenodd" clip-rule="evenodd" d="M27.5251 27.5251L11.5 48.208L32.4749 32.4749L27.5251 27.5251L48.208 11.4384L32.4749 32.4749L27.5251 27.5251Z" fill="white"/>
</mask>
<g mask="url(#mask0_119_2703)">
<rect x="45.5564" y="8.7868" width="8" height="26" transform="rotate(45 45.5564 8.7868)" fill="#FF1414"/>
</g>
<defs>
<linearGradient id="paint0_linear_119_2703" x1="4" y1="4" x2="4" y2="56" gradientUnits="userSpaceOnUse">
<stop stop-color="#23D9FD"/>
<stop offset="1" stop-color="#1F63F0"/>
</linearGradient>
</defs>
</svg>
