<svg width="60" height="60" viewBox="0 0 60 60" fill="none" xmlns="http://www.w3.org/2000/svg">
<path fill-rule="evenodd" clip-rule="evenodd" d="M39.0815 0C45.105 0 48.116 0 51.3585 1.025C54.8985 2.3135 57.6865 5.1015 58.975 8.6415C60 11.8835 60 14.8955 60 20.9185V39.0815C60 45.105 60 48.116 58.975 51.3585C57.6865 54.8985 54.8985 57.6865 51.3585 58.9745C48.116 60 45.105 60 39.0815 60H20.9185C14.895 60 11.8835 60 8.6415 58.9745C5.1015 57.6865 2.3135 54.8985 1.025 51.3585C0 48.116 0 45.105 0 39.0815V20.9185C0 14.8955 0 11.8835 1.025 8.6415C2.3135 5.1015 5.1015 2.3135 8.6415 1.025C11.8835 0 14.895 0 20.9185 0H39.0815Z" fill="url(#paint0_linear_119_2799)"/>
<path fill-rule="evenodd" clip-rule="evenodd" d="M30 56C44.3594 56 56 44.3594 56 30C56 15.6406 44.3594 4 30 4C15.6406 4 4 15.6406 4 30C4 44.3594 15.6406 56 30 56Z" fill="#2E2E30"/>
<g filter="url(#filter0_d_119_2799)">
<path fill-rule="evenodd" clip-rule="evenodd" d="M31.9705 16.1758C31.9017 16.1662 31.8329 16.157 31.7641 16.1484L31.6035 14.2454C31.5537 13.6563 31.3974 13.6465 31.2536 14.2148L30.7868 16.0597C30.5635 16.0472 30.341 16.0401 30.1193 16.0383L29.7274 14.1666C29.6063 13.5879 29.45 13.5972 29.3765 14.1788L29.1382 16.0647C28.9083 16.079 28.6795 16.099 28.4521 16.1245L27.8691 14.3114C27.6881 13.7485 27.5336 13.7741 27.5213 14.3602L27.4813 16.2682C27.2618 16.3087 27.0439 16.3543 26.8276 16.4051L26.027 14.6744C25.7788 14.1378 25.6285 14.1821 25.6878 14.7653L25.8805 16.6627C25.6676 16.7288 25.4567 16.7999 25.2479 16.8758L24.2408 15.2532C23.929 14.7509 23.7853 14.8131 23.9152 15.3847L24.3375 17.2436C24.1342 17.3341 23.9332 17.4295 23.7347 17.5294L22.5357 16.0395C22.165 15.5789 22.03 15.6582 22.2285 16.2098L22.8736 18.0016C22.6824 18.1153 22.4939 18.2335 22.3084 18.3561L20.9356 17.0224C20.5116 16.6104 20.3872 16.7055 20.6515 17.2288L21.5086 18.9256C21.3263 19.0652 21.1474 19.2093 20.9721 19.3578L19.4751 18.1808C19.0103 17.8154 18.8966 17.9231 19.2141 18.4158L20.2461 20.0171C20.0862 20.1729 19.93 20.3325 19.7775 20.4959L18.1501 19.5113C17.6442 19.2052 17.5444 19.3259 17.9197 19.7763L19.1348 21.2347C18.9939 21.4086 18.857 21.5861 18.7243 21.767L16.9919 20.9893C16.4525 20.7472 16.3681 20.8792 16.7955 21.2805L18.174 22.575C18.0543 22.7648 17.9389 22.9579 17.8281 23.154L16.0168 22.5943C15.452 22.4197 15.3843 22.5609 15.8574 22.9072L17.3781 24.0201C17.2815 24.2232 17.1895 24.4292 17.1024 24.6379L15.2387 24.3035C14.6568 24.199 14.6069 24.3475 15.1186 24.6334L16.7588 25.5501C16.6847 25.7699 16.6157 25.9924 16.5522 26.2174L14.6744 26.0803C14.0848 26.0373 14.0506 26.1901 14.5895 26.4211L16.3203 27.1629C16.2742 27.3836 16.2331 27.6065 16.1973 27.8314L14.3186 27.9241C13.7281 27.9533 13.7128 28.1091 14.2758 28.2727L16.0771 28.796C16.0566 29.0237 16.0417 29.2507 16.0324 29.477L14.1836 29.7972C13.601 29.898 13.6049 30.0546 14.1836 30.1483L16.0258 30.4467C16.0322 30.6761 16.0442 30.9045 16.0618 31.1316L14.2713 31.673C13.7054 31.8442 13.7283 31.9991 14.3141 32.0216L16.1698 32.0929C16.2044 32.3274 16.245 32.5603 16.2913 32.7914L14.5803 33.5115C14.0354 33.7409 14.0744 33.8926 14.6593 33.8537L16.5137 33.7305C16.5747 33.9533 16.6411 34.1741 16.7128 34.3928L15.1052 35.3144C14.5923 35.6084 14.6495 35.7542 15.2253 35.6444L17.0444 35.2974C17.1315 35.5118 17.2238 35.7238 17.3212 35.9332L15.84 37.0424C15.3667 37.3968 15.4412 37.5345 15.9994 37.3553L17.7567 36.7911C17.8687 36.9942 17.9857 37.1945 18.1075 37.3916L16.7742 38.6713C16.3477 39.0807 16.4384 39.2083 16.9706 38.9624L18.6399 38.1911C18.7754 38.3801 18.9155 38.5659 19.0601 38.748L17.8949 40.178C17.5214 40.6363 17.6271 40.752 18.1253 40.443L19.6816 39.4781C19.8432 39.6553 20.0094 39.8285 20.1801 39.9975L19.1781 41.5301C18.8546 42.025 18.9717 42.129 19.4349 41.7696L20.8824 40.6469C21.0597 40.7999 21.241 40.9486 21.4262 41.0929L20.6205 42.7321C20.3597 43.2627 20.4887 43.3516 20.9046 42.9385L22.1986 41.6535C22.3934 41.7849 22.5918 41.9116 22.7937 42.0334L22.1952 43.7547C22.001 44.3131 22.1398 44.3856 22.5023 43.9249L23.6258 42.4973C23.8352 42.6048 24.0479 42.7073 24.2638 42.8045L23.88 44.5836C23.7553 45.1615 23.9019 45.2166 24.2056 44.7151L25.1441 43.1654C25.3649 43.2473 25.5887 43.3238 25.8152 43.3949L25.6511 45.207C25.5978 45.7958 25.75 45.8326 25.9903 45.2979L26.7316 43.6484C26.9667 43.705 27.2044 43.7557 27.4446 43.8005L27.4707 45.6114C27.4792 46.2026 27.6345 46.2233 27.8176 45.6663L28.384 43.9435C28.6207 43.9715 28.8567 43.9934 29.092 44.0093L29.3384 45.8023C29.4189 46.388 29.5755 46.3896 29.6894 45.8145L30.0405 44.0413C30.2792 44.0413 30.5168 44.0352 30.7532 44.0231L31.2157 45.7705C31.367 46.342 31.5226 46.3246 31.5656 45.7399L31.6975 43.9424C31.9347 43.914 32.1704 43.8796 32.4044 43.8392L33.0761 45.5166C33.2959 46.0654 33.4482 46.0291 33.4196 45.4435L33.3317 43.6466C33.5637 43.5901 33.7937 43.5278 34.0215 43.4597L34.8934 45.044C35.1784 45.5619 35.3252 45.5073 35.2254 44.9296L34.9194 43.1579C35.1486 43.0721 35.3753 42.9804 35.5991 42.883L36.6285 44.3626C36.9661 44.848 37.1064 44.7783 36.9468 44.2142L36.4547 42.4755C36.6661 42.366 36.8744 42.2512 37.0796 42.1312L38.2842 43.4773C38.6785 43.9179 38.8092 43.8316 38.5821 43.2912L37.8818 41.6253C38.0783 41.4918 38.2715 41.3535 38.461 41.2103L39.8235 42.402C40.2686 42.7912 40.3878 42.6897 40.0965 42.181L39.1985 40.6131C39.3778 40.4577 39.5531 40.2977 39.7244 40.1332L41.2247 41.1518C41.7139 41.4839 41.8198 41.3686 41.4687 40.8992L40.3867 39.453C40.5462 39.2778 40.7013 39.0983 40.852 38.9148L42.468 39.7445C42.994 40.0145 43.0851 39.8871 42.6794 39.464L41.4295 38.1607C41.5705 37.9629 41.7066 37.7612 41.8376 37.5556L43.5266 38.2099C44.0779 38.4234 44.1552 38.2872 43.7074 37.9088L42.3206 36.7369C42.4334 36.5297 42.5412 36.3192 42.6439 36.1055L44.4054 36.5504C44.9786 36.6952 45.0387 36.5506 44.5482 36.2296L43.0264 35.2338C43.1133 35.0156 43.195 34.7945 43.2713 34.5706L45.0814 34.7985C45.668 34.8723 45.7101 34.7215 45.1841 34.4626L43.548 33.6576C43.608 33.4319 43.6627 33.2037 43.7119 32.9731L45.5453 32.9787C46.1365 32.9805 46.1599 32.8257 45.6063 32.6329L43.8796 32.0316L43.8858 31.988C43.9174 31.7635 43.9434 31.5395 43.9641 31.3161L45.7867 31.1301C46.3748 31.0701 46.3819 30.9137 45.8112 30.7798L44.0198 30.3596C44.0254 30.1256 44.0252 29.8925 44.0192 29.6605L45.8111 29.2525C46.3876 29.1213 46.3756 28.9651 45.7928 28.9018L43.9613 28.7029C43.9393 28.4708 43.9114 28.24 43.878 28.0107L45.6131 27.3852C46.1693 27.1847 46.1383 27.0312 45.5521 27.0394L43.7064 27.0651C43.657 26.8384 43.6022 26.6135 43.5419 26.3905L45.1952 25.5544C45.7228 25.2876 45.6734 25.139 45.0925 25.2186L43.2584 25.4698C43.183 25.2518 43.1022 25.0361 43.0163 24.8227L44.5635 23.786C45.0546 23.4569 44.9874 23.3154 44.4206 23.4652L42.6249 23.9396C42.5219 23.7273 42.4136 23.5177 42.3002 23.3112L43.7311 22.1179C44.1851 21.7393 44.1035 21.6056 43.5555 21.8138L41.8051 22.4787C41.6819 22.2868 41.554 22.098 41.4216 21.9124L42.7026 20.5471C43.1071 20.1159 43.0098 19.9932 42.4912 20.2666L40.8311 21.1419C40.6868 20.9666 40.5383 20.7947 40.3857 20.6265L41.4952 19.109C41.8442 18.6318 41.7327 18.5219 41.2513 18.8564L39.7077 19.9293C39.5445 19.7727 39.3774 19.6199 39.2065 19.4711L40.126 17.8241C40.4142 17.3079 40.2901 17.2124 39.8531 17.6031L38.4502 18.8575C38.2703 18.7217 38.0869 18.59 37.9 18.4627L38.6142 16.7105C38.8373 16.163 38.7025 16.0833 38.3164 16.5244L37.0754 17.9419C36.8755 17.8253 36.6723 17.7134 36.4658 17.6064L36.992 15.7922C37.1567 15.2244 37.0143 15.1592 36.6764 15.6382L35.5834 17.1877C35.378 17.099 35.1699 17.015 34.9592 16.9358L35.2615 15.064C35.3558 14.4804 35.2065 14.433 34.9295 14.9497L34.0317 16.624C33.8183 16.5606 33.6026 16.5019 33.3846 16.4483L33.4568 14.546C33.4793 13.9552 33.3253 13.9264 33.1133 14.473L32.4252 16.2472C32.2746 16.2211 32.123 16.1973 31.9705 16.1758ZM41.3881 31.6005C40.5041 37.89 34.689 42.272 28.3995 41.3881C22.11 40.5042 17.728 34.689 18.6119 28.3995C19.4958 22.11 25.311 17.728 31.6005 18.6119C37.8899 19.4958 42.272 25.311 41.3881 31.6005Z" fill="url(#paint1_linear_119_2799)"/>
</g>
<g filter="url(#filter1_dd_119_2799)">
<path fill-rule="evenodd" clip-rule="evenodd" d="M29.65 9.00286C29.7664 9.00096 29.8831 9 29.9999 9C30.2643 9 30.5275 9.00489 30.7895 9.01457L31.3582 6.59036C31.5566 5.74469 31.7884 5.75519 31.8773 6.62666L32.1305 9.10674C32.5107 9.14505 32.8879 9.19351 33.2619 9.25183L34.1217 6.91528C34.4216 6.1001 34.6505 6.13877 34.6325 7.01458L34.5816 9.50127C34.9546 9.58428 35.3239 9.67721 35.6892 9.77976L36.8273 7.5653C37.2244 6.79274 37.4468 6.85902 37.3223 7.72612L36.9692 10.1841C37.3373 10.3136 37.7007 10.453 38.059 10.602L39.4167 8.52733C39.8924 7.80052 40.1066 7.88968 39.8921 8.73901L39.2815 11.1572C39.6234 11.326 39.9601 11.5038 40.2912 11.6903L41.8944 9.79325C42.455 9.12982 42.6568 9.24442 42.3404 10.0613L41.4398 12.3866C41.7589 12.5942 42.072 12.8103 42.3787 13.0346L44.2047 11.3438C44.842 10.7536 45.0284 10.892 44.6148 11.6642L43.4378 13.8617C43.7299 14.1052 44.0153 14.3564 44.2936 14.6151L46.3152 13.1572C47.0197 12.6491 47.1878 12.8091 46.6831 13.5252L45.2485 15.561C45.5098 15.8369 45.7637 16.1199 46.0099 16.4096L48.196 15.2079C48.9572 14.7894 49.1046 14.9688 48.5164 15.618L46.847 17.4609C47.0791 17.7722 47.3028 18.0901 47.5177 18.4144L49.8062 17.4524C50.607 17.1159 50.7348 17.3096 50.082 17.8938L48.2234 19.5571C48.4127 19.8867 48.5933 20.222 48.7649 20.5625L51.1539 19.8866C51.9897 19.6501 52.0929 19.858 51.3739 20.3582L49.3302 21.78C49.4791 22.1297 49.6188 22.4842 49.7489 22.8433L52.2038 22.4633C53.0622 22.3305 53.1393 22.5494 52.3646 22.9583L50.1654 24.1191C50.2715 24.4836 50.368 24.8522 50.4546 25.2245L52.9411 25.1464C53.8093 25.1192 53.8592 25.3458 53.0404 25.6573L50.7165 26.5413C50.7784 26.915 50.8305 27.292 50.8724 27.672L53.3554 27.8981C54.2205 27.9768 54.2424 28.2079 53.3918 28.4172L50.9771 29.0115C50.9923 29.3391 50.9999 29.6687 50.9999 30C50.9999 30.0589 50.9997 30.1177 50.9992 30.1765L53.437 30.6593C54.289 30.828 54.2866 31.0601 53.4188 31.1794L50.9458 31.5193C50.9186 31.9007 50.8811 32.2792 50.8337 32.6547L53.1948 33.431C54.02 33.7024 53.9893 33.9324 53.1134 33.945L50.6231 33.981C50.5511 34.3565 50.469 34.7284 50.3772 35.0965L50.3772 35.0965L52.626 36.1547C53.412 36.5246 53.3535 36.7492 52.4826 36.655L50.0108 36.3877C49.8947 36.7517 49.769 37.1114 49.6338 37.4665L51.7386 38.792C52.4736 39.2549 52.3882 39.4707 51.5352 39.271L49.1164 38.7049C48.9546 39.0596 48.7833 39.409 48.6027 39.7528L50.5506 41.2858C51.2332 41.823 51.1257 42.0287 50.2983 41.741L47.9403 40.9211C47.742 41.2463 47.535 41.5656 47.3198 41.8788L49.0699 43.6413C49.682 44.2577 49.5502 44.4487 48.764 44.0623L46.5239 42.9614C46.2889 43.2605 46.046 43.5531 45.7955 43.8388L47.3205 45.8049C47.8529 46.4913 47.6988 46.6649 46.9656 46.1855L44.8777 44.8207C44.6095 45.0899 44.334 45.3519 44.0516 45.6064L45.3271 47.7462C45.7719 48.4923 45.5978 48.6458 44.9285 48.0807L43.025 46.4737C42.7271 46.7096 42.4226 46.9375 42.112 47.1573L43.1177 49.4377C43.4682 50.2325 43.2767 50.3636 42.6812 49.7211L40.991 47.8975C40.6603 48.101 40.3235 48.2956 39.9811 48.481L40.7392 50.8424C41.0047 51.6694 40.8005 51.7798 40.2755 51.0786L38.7803 49.0819C38.4352 49.2409 38.0851 49.3909 37.7302 49.5315L38.1951 51.9688C38.3579 52.822 38.1418 52.9067 37.7061 52.1468L36.4669 49.9854C36.1057 50.1022 35.7403 50.2095 35.3708 50.3069L35.5354 52.7859C35.593 53.6526 35.3682 53.7104 35.0284 52.903L34.0621 50.6074H34.0621C33.6904 50.6803 33.3151 50.7433 32.9366 50.7963L32.7976 53.2823C32.7491 54.1496 32.5189 54.1795 32.28 53.3367L31.6006 50.9399C31.2237 50.9683 30.8441 50.9868 30.462 50.995L30.0201 53.4509C29.8662 54.3058 29.6341 54.3074 29.4997 53.4418L29.1177 50.9818C28.7275 50.9657 28.3401 50.9389 27.9556 50.9018L27.2626 53.2871C27.0202 54.1212 26.7893 54.0986 26.746 53.2237L26.6229 50.7299C26.2457 50.6689 25.8719 50.5979 25.5018 50.5171L24.5233 52.8C24.1811 53.5984 23.9546 53.5478 24.0183 52.6741L24.1996 50.1887C23.8325 50.0834 23.4695 49.9684 23.111 49.844L21.8608 51.9919C21.4239 52.7426 21.2052 52.6647 21.375 51.8054L21.8573 49.363C21.5058 49.215 21.1591 49.0577 20.8176 48.8914L19.3127 50.874C18.7875 51.5658 18.58 51.4619 18.8532 50.6296L19.6295 48.2649C19.2985 48.0766 18.9732 47.8795 18.6537 47.674L18.6537 47.674L16.9149 49.462C16.3093 50.0847 16.116 49.9563 16.4886 49.1635L17.5472 46.9111C17.2346 46.6805 16.9285 46.4415 16.6295 46.1943L14.7194 47.7857C14.052 48.3416 13.8732 48.1937 14.3266 47.4442L15.6208 45.305C15.3441 45.0449 15.0744 44.7774 14.8121 44.5028L12.7195 45.8513C11.9894 46.3218 11.8299 46.1532 12.3713 45.4645L13.9147 43.5013C13.6705 43.2106 13.434 42.9132 13.2055 42.6094L10.9628 43.6935C10.1808 44.0716 10.043 43.8848 10.6643 43.2672L12.4323 41.5099C12.2239 41.1925 12.0239 40.869 11.8325 40.5399L9.47398 41.3428C8.6517 41.6227 8.53774 41.4205 9.22966 40.8833L11.1948 39.3575C11.0254 39.0176 10.8649 38.6726 10.7137 38.3226L8.27405 38.8322C7.42379 39.0098 7.33532 38.7952 8.08755 38.3463L10.2209 37.0732C10.0904 36.7082 9.96962 36.3385 9.85902 35.9644L7.38964 36.2152C6.52547 36.3029 6.45991 36.0803 7.25495 35.7125L9.51986 34.6647C9.43608 34.2953 9.36204 33.9222 9.29801 33.5457L6.81166 33.4936C5.94324 33.4753 5.9053 33.2464 6.73924 32.9782L9.11527 32.2141H9.11527C9.07589 31.8383 9.04643 31.4595 9.02714 31.0781L6.56013 30.7225C5.7004 30.5986 5.69065 30.3667 6.55105 30.2022L9.0016 29.7335C9.00635 29.3515 9.0213 28.972 9.04619 28.5952L6.63863 27.941C5.8004 27.7133 5.81898 27.4819 6.69302 27.4235L9.17743 27.2573C9.22791 26.8703 9.28893 26.4866 9.36018 26.1065L9.36018 26.1065L7.04643 25.209C6.2366 24.8949 6.27926 24.6668 7.15463 24.7L9.6501 24.7947C9.74444 24.4247 9.84861 24.0587 9.96231 23.6969L7.77457 22.5238C7.00906 22.1133 7.07921 21.892 7.944 22.0317L10.406 22.4293C10.5436 22.0735 10.6906 21.7224 10.8466 21.3763L8.81572 19.9435C8.10594 19.4428 8.20253 19.2318 9.04385 19.4758L11.4379 20.1701C11.6164 19.8337 11.8039 19.5027 11.9999 19.1774L10.1552 17.5047C9.51177 16.9212 9.63335 16.7236 10.4387 17.0683L12.7299 18.049C12.9466 17.7365 13.1715 17.4302 13.4044 17.1303L13.4044 17.1303L11.7743 15.2417C11.2067 14.5841 11.3515 14.4027 12.1088 14.843L14.2626 16.0951C14.5197 15.8044 14.7847 15.5208 15.0574 15.2447L13.6388 13.2036C13.1431 12.4903 13.306 12.325 14.0132 12.842L16.0323 14.3184C16.3157 14.0657 16.606 13.8207 16.9029 13.5835L15.7429 11.3832C15.3378 10.6148 15.5197 10.4707 16.1586 11.07L17.9795 12.7784C18.2907 12.5607 18.6081 12.3513 18.9313 12.1505L18.048 9.82487C17.7395 9.01286 17.9376 8.89191 18.4987 9.56466L20.0945 11.4782L20.0945 11.4782C20.4293 11.2988 20.7695 11.1282 21.1149 10.9667L20.5215 8.55049C20.3143 7.70694 20.5256 7.61104 21.0005 8.34715L22.3489 10.4373C22.7025 10.2989 23.0607 10.1698 23.4234 10.0504L23.1286 7.57804C23.0258 6.71553 23.2472 6.6461 23.6289 7.43459L24.7115 9.67152C25.0865 9.57425 25.4655 9.48709 25.8483 9.41033L25.8137 6.92932C25.8016 6.06078 26.0291 6.01488 26.3262 6.83895L27.1734 9.1886C27.5483 9.13816 27.9263 9.09762 28.3072 9.06724L28.5758 6.59507C28.6696 5.73153 28.901 5.71369 29.0955 6.56783L29.65 9.00286ZM32.5496 28.795C31.4469 28.7581 30.0915 27.7803 29.5455 26.8261L23.1839 15.8075C22.498 14.6087 23.283 13.2658 24.3382 12.6565C25.0452 12.2483 27.3898 11.504 30.4956 11.5065C39.2291 11.7362 46.4549 18.0185 48.1325 26.3128C48.2834 27.7006 47.1043 28.8115 45.8577 28.7928L32.5496 28.795ZM21.1321 16.9173L27.7105 28.2274C28.2477 29.1907 28.2192 30.9297 27.6658 31.8798L21.3043 42.8983C20.609 44.0918 18.8836 44.2265 17.8284 43.6173C17.1264 43.2119 15.3302 41.5742 13.7868 38.9168C12.3293 36.2723 11.4999 33.233 11.4999 30C11.4999 24.5465 13.8484 19.6705 17.6025 16.2845C18.8154 15.6068 20.5001 15.7838 21.1321 16.9173ZM47.9326 33.5446C47.9326 32.3261 46.9978 31.1386 45.6166 31.1332H32.8935C31.7941 31.129 30.4359 31.893 29.8703 32.8398L23.3646 44.192C22.654 45.3814 23.2193 46.8879 24.5983 47.5447C26.6754 48.6681 32.0715 48.625 36.2202 47.4283C39.4041 46.2918 42.1854 44.3076 44.2922 41.7474C47.0683 38.2322 47.9326 34.5894 47.9326 33.5446ZM29.9999 31C30.5522 31 30.9999 30.5523 30.9999 30C30.9999 29.4477 30.5522 29 29.9999 29C29.4477 29 28.9999 29.4477 28.9999 30C28.9999 30.5523 29.4477 31 29.9999 31Z" fill="url(#paint2_linear_119_2799)"/>
</g>
<defs>
<filter id="filter0_d_119_2799" x="12.748" y="12.7376" width="34.4888" height="34.5061" filterUnits="userSpaceOnUse" color-interpolation-filters="sRGB">
<feFlood flood-opacity="0" result="BackgroundImageFix"/>
<feColorMatrix in="SourceAlpha" type="matrix" values="0 0 0 0 0 0 0 0 0 0 0 0 0 0 0 0 0 0 127 0" result="hardAlpha"/>
<feOffset/>
<feGaussianBlur stdDeviation="0.5"/>
<feColorMatrix type="matrix" values="0 0 0 0 0 0 0 0 0 0 0 0 0 0 0 0 0 0 0.2 0"/>
<feBlend mode="normal" in2="BackgroundImageFix" result="effect1_dropShadow_119_2799"/>
<feBlend mode="normal" in="SourceGraphic" in2="effect1_dropShadow_119_2799" result="shape"/>
</filter>
<filter id="filter1_dd_119_2799" x="3.91052" y="4.93721" width="52.1624" height="52.1543" filterUnits="userSpaceOnUse" color-interpolation-filters="sRGB">
<feFlood flood-opacity="0" result="BackgroundImageFix"/>
<feColorMatrix in="SourceAlpha" type="matrix" values="0 0 0 0 0 0 0 0 0 0 0 0 0 0 0 0 0 0 127 0" result="hardAlpha"/>
<feOffset dy="1"/>
<feGaussianBlur stdDeviation="1"/>
<feColorMatrix type="matrix" values="0 0 0 0 0 0 0 0 0 0 0 0 0 0 0 0 0 0 0.2 0"/>
<feBlend mode="normal" in2="BackgroundImageFix" result="effect1_dropShadow_119_2799"/>
<feColorMatrix in="SourceAlpha" type="matrix" values="0 0 0 0 0 0 0 0 0 0 0 0 0 0 0 0 0 0 127 0" result="hardAlpha"/>
<feOffset dy="1"/>
<feColorMatrix type="matrix" values="0 0 0 0 0 0 0 0 0 0 0 0 0 0 0 0 0 0 0.2 0"/>
<feBlend mode="normal" in2="effect1_dropShadow_119_2799" result="effect2_dropShadow_119_2799"/>
<feBlend mode="normal" in="SourceGraphic" in2="effect2_dropShadow_119_2799" result="shape"/>
</filter>
<linearGradient id="paint0_linear_119_2799" x1="0" y1="0" x2="0" y2="60" gradientUnits="userSpaceOnUse">
<stop stop-color="#D3D7DD"/>
<stop offset="1" stop-color="#888C90"/>
</linearGradient>
<linearGradient id="paint1_linear_119_2799" x1="23.8385" y1="8.49672" x2="8.91519" y2="35.1259" gradientUnits="userSpaceOnUse">
<stop stop-color="#AFB0B3"/>
<stop offset="1" stop-color="#B5B7BA"/>
</linearGradient>
<linearGradient id="paint2_linear_119_2799" x1="5.91052" y1="5.93721" x2="5.91052" y2="54.0915" gradientUnits="userSpaceOnUse">
<stop stop-color="#D9DADB"/>
<stop offset="1" stop-color="#7D8082"/>
</linearGradient>
</defs>
</svg>
