<svg width="60" height="60" viewBox="0 0 60 60" fill="none" xmlns="http://www.w3.org/2000/svg">
<path fill-rule="evenodd" clip-rule="evenodd" d="M39.0815 0C45.105 0 48.116 0 51.3585 1.025C54.8985 2.3135 57.6865 5.1015 58.975 8.6415C60 11.8835 60 14.8955 60 20.9185V39.0815C60 45.105 60 48.116 58.975 51.3585C57.6865 54.8985 54.8985 57.6865 51.3585 58.9745C48.116 60 45.105 60 39.0815 60H20.9185C14.895 60 11.8835 60 8.6415 58.9745C5.1015 57.6865 2.3135 54.8985 1.025 51.3585C0 48.116 0 45.105 0 39.0815V20.9185C0 14.8955 0 11.8835 1.025 8.6415C2.3135 5.1015 5.1015 2.3135 8.6415 1.025C11.8835 0 14.895 0 20.9185 0H39.0815Z" fill="url(#paint0_linear_119_3003)"/>
<path fill-rule="evenodd" clip-rule="evenodd" d="M19.75 35.5C25.9632 35.5 31 30.4632 31 24.25C31 18.0368 25.9632 13 19.75 13C13.5368 13 8.5 18.0368 8.5 24.25C8.5 30.4632 13.5368 35.5 19.75 35.5Z" fill="#FFD800"/>
<path opacity="0.900536" fill-rule="evenodd" clip-rule="evenodd" d="M41.5 43.9967C46.4931 43.8642 50.5 39.775 50.5 34.75C50.5 29.6414 46.3586 25.5 41.25 25.5C41.0575 25.5 40.8663 25.5059 40.6767 25.5175C39.0043 21.4019 34.9661 18.5 30.25 18.5C24.0368 18.5 19 23.5368 19 29.75C19 30.0392 19.0109 30.3258 19.0323 30.6095C15.8856 31.1828 13.5 33.9378 13.5 37.25C13.5 40.8942 16.3879 43.8639 20 43.9955V44H41.5V43.9967Z" fill="white"/>
<defs>
<linearGradient id="paint0_linear_119_3003" x1="0" y1="0" x2="0" y2="60" gradientUnits="userSpaceOnUse">
<stop stop-color="#1D62F0"/>
<stop offset="1" stop-color="#19D5FD"/>
</linearGradient>
</defs>
</svg>
