<svg width="27" height="25" viewBox="0 0 27 25" fill="none" xmlns="http://www.w3.org/2000/svg">
<path fill-rule="evenodd" clip-rule="evenodd" d="M22.1145 0.00549509C22.3805 -0.0225049 22.6365 0.0524951 22.8425 0.218495C25.2385 2.15149 26.6135 5.0525 26.6135 8.17949C26.6135 11.2805 25.2575 14.1675 22.8935 16.0995C22.7175 16.2425 22.4955 16.3225 22.2685 16.3225C21.9675 16.3225 21.6875 16.1885 21.4995 15.9545C21.1555 15.5305 21.2195 14.9035 21.6425 14.5585C23.5435 13.0055 24.6335 10.6805 24.6335 8.17949C24.6335 5.65849 23.5285 3.3215 21.6025 1.7675C21.1775 1.4255 21.1095 0.799495 21.4495 0.372495C21.6145 0.164495 21.8505 0.0344951 22.1145 0.00549509ZM5.011 1.7678C5.436 1.4258 5.504 0.799795 5.164 0.372795C4.998 0.164795 4.763 0.0347951 4.499 0.00579509C4.233 -0.0222049 3.977 0.0527951 3.771 0.218795C1.374 2.1508 0 5.05279 0 8.1798C0 11.2808 1.356 14.1668 3.72 16.0998C3.896 16.2428 4.118 16.3228 4.345 16.3228C4.646 16.3228 4.926 16.1878 5.115 15.9548C5.458 15.5308 5.394 14.9038 4.971 14.5588C3.071 13.0058 1.981 10.6808 1.981 8.1798C1.981 5.65879 3.085 3.3208 5.011 1.7678ZM9.092 4.5813C9.516 4.2393 9.585 3.6133 9.244 3.1853C9.078 2.9773 8.842 2.8473 8.578 2.8193C8.317 2.7893 8.057 2.8663 7.852 3.0323C6.304 4.2803 5.415 6.1533 5.415 8.17229C5.415 10.1733 6.291 12.0373 7.819 13.2863C7.994 13.4293 8.216 13.5093 8.444 13.5093C8.743 13.5093 9.024 13.3743 9.212 13.1413C9.556 12.7173 9.491 12.0903 9.07 11.7453C8.006 10.8753 7.396 9.5733 7.396 8.17229C7.396 6.75929 8.014 5.4503 9.092 4.5813ZM18.762 3.0325C18.556 2.8665 18.297 2.78949 18.035 2.81949C17.772 2.8475 17.535 2.97749 17.369 3.18549C17.029 3.61349 17.097 4.2395 17.522 4.5815C18.599 5.4505 19.218 6.75949 19.218 8.17249C19.218 9.57349 18.608 10.8755 17.544 11.7445C17.122 12.0905 17.058 12.7175 17.401 13.1415C17.59 13.3745 17.87 13.5095 18.17 13.5095C18.397 13.5095 18.619 13.4295 18.795 13.2855C20.322 12.0375 21.198 10.1735 21.198 8.17249C21.198 6.15349 20.31 4.2805 18.762 3.0325ZM10.3759 8.0216C10.3759 6.4026 11.6879 5.0906 13.3069 5.0906C14.9259 5.0906 16.2379 6.4026 16.2379 8.0216C16.2379 9.26659 15.4579 10.3236 14.3629 10.7476V23.9026C14.3629 24.4886 13.8899 24.9646 13.3069 24.9646C12.7239 24.9646 12.2509 24.4886 12.2509 23.9026V10.7476C11.1559 10.3226 10.3759 9.26659 10.3759 8.0216Z" fill="white"/>
</svg>
